<svg width="375" height="34" viewBox="0 0 375 34" fill="none" xmlns="http://www.w3.org/2000/svg">
<path d="M27.9211 22.2695C27.1594 20.9326 25.9699 19.8909 24.5443 19.3121C25.2532 18.7804 25.7769 18.0391 26.0412 17.1932C26.3054 16.3473 26.2968 15.4397 26.0166 14.5989C25.7363 13.7582 25.1987 13.0269 24.4797 12.5088C23.7608 11.9906 22.897 11.7118 22.0108 11.7118C21.1246 11.7118 20.2609 11.9906 19.5419 12.5088C18.823 13.0269 18.2853 13.7582 18.0051 14.5989C17.7248 15.4397 17.7162 16.3473 17.9805 17.1932C18.2447 18.0391 18.7684 18.7804 19.4774 19.3121C18.0517 19.8909 16.8623 20.9326 16.1006 22.2695C16.0534 22.3454 16.0219 22.43 16.0081 22.5183C15.9942 22.6066 15.9983 22.6967 16.02 22.7834C16.0417 22.8701 16.0806 22.9516 16.1344 23.0229C16.1882 23.0943 16.2558 23.1541 16.3332 23.1988C16.4106 23.2435 16.4961 23.2722 16.5848 23.2832C16.6735 23.2942 16.7635 23.2872 16.8495 23.2627C16.9354 23.2382 17.0156 23.1967 17.0852 23.1406C17.1547 23.0845 17.2123 23.015 17.2545 22.9362C18.2612 21.1961 20.0391 20.1583 22.0108 20.1583C23.9826 20.1583 25.7604 21.1966 26.7672 22.9362C26.8586 23.0831 27.0035 23.1888 27.1714 23.2308C27.3393 23.2728 27.517 23.2479 27.6668 23.1613C27.8167 23.0748 27.927 22.9333 27.9745 22.7669C28.0219 22.6004 28.0028 22.422 27.9211 22.2695ZM19.1218 15.9358C19.1218 15.3644 19.2912 14.8059 19.6087 14.3308C19.9261 13.8557 20.3773 13.4854 20.9052 13.2667C21.4331 13.0481 22.014 12.9908 22.5744 13.1023C23.1349 13.2138 23.6496 13.4889 24.0537 13.893C24.4577 14.297 24.7329 14.8118 24.8443 15.3722C24.9558 15.9326 24.8986 16.5135 24.6799 17.0414C24.4613 17.5693 24.091 18.0205 23.6159 18.338C23.1408 18.6554 22.5822 18.8249 22.0108 18.8249C21.2449 18.824 20.5106 18.5193 19.969 17.9777C19.4273 17.4361 19.1227 16.7018 19.1218 15.9358Z" fill="#161823"/>
<path d="M40.673 23V16.092H40.629L38.528 18.039V16.961L40.42 15.245H41.641V23H40.673ZM43.4457 25.046L44.1497 21.867H45.1617L44.1607 25.046H43.4457ZM49.3738 23.176C48.8018 23.176 48.3032 23.0073 47.8778 22.67C47.4598 22.3327 47.1372 21.8633 46.9098 21.262C46.6825 20.6533 46.5688 19.942 46.5688 19.128C46.5688 18.314 46.6825 17.6063 46.9098 17.005C47.1372 16.3963 47.4598 15.9233 47.8778 15.586C48.3032 15.2487 48.8018 15.08 49.3738 15.08C49.9458 15.08 50.4408 15.2487 50.8588 15.586C51.2842 15.9233 51.6105 16.3963 51.8378 17.005C52.0652 17.6063 52.1788 18.314 52.1788 19.128C52.1788 19.942 52.0652 20.6533 51.8378 21.262C51.6105 21.8633 51.2842 22.3327 50.8588 22.67C50.4408 23.0073 49.9458 23.176 49.3738 23.176ZM49.3738 22.351C49.7332 22.351 50.0485 22.219 50.3198 21.955C50.5912 21.6837 50.8038 21.306 50.9578 20.822C51.1118 20.338 51.1888 19.7733 51.1888 19.128C51.1888 18.4827 51.1118 17.918 50.9578 17.434C50.8038 16.95 50.5912 16.576 50.3198 16.312C50.0485 16.0407 49.7332 15.905 49.3738 15.905C49.0145 15.905 48.6955 16.0407 48.4168 16.312C48.1455 16.576 47.9328 16.95 47.7788 17.434C47.6322 17.918 47.5588 18.4827 47.5588 19.128C47.5588 19.7733 47.6322 20.338 47.7788 20.822C47.9328 21.306 48.1455 21.6837 48.4168 21.955C48.6955 22.219 49.0145 22.351 49.3738 22.351ZM56.5174 23.176C55.9454 23.176 55.4467 23.0073 55.0214 22.67C54.6034 22.3327 54.2807 21.8633 54.0534 21.262C53.826 20.6533 53.7124 19.942 53.7124 19.128C53.7124 18.314 53.826 17.6063 54.0534 17.005C54.2807 16.3963 54.6034 15.9233 55.0214 15.586C55.4467 15.2487 55.9454 15.08 56.5174 15.08C57.0894 15.08 57.5844 15.2487 58.0024 15.586C58.4277 15.9233 58.754 16.3963 58.9814 17.005C59.2087 17.6063 59.3224 18.314 59.3224 19.128C59.3224 19.942 59.2087 20.6533 58.9814 21.262C58.754 21.8633 58.4277 22.3327 58.0024 22.67C57.5844 23.0073 57.0894 23.176 56.5174 23.176ZM56.5174 22.351C56.8767 22.351 57.192 22.219 57.4634 21.955C57.7347 21.6837 57.9474 21.306 58.1014 20.822C58.2554 20.338 58.3324 19.7733 58.3324 19.128C58.3324 18.4827 58.2554 17.918 58.1014 17.434C57.9474 16.95 57.7347 16.576 57.4634 16.312C57.192 16.0407 56.8767 15.905 56.5174 15.905C56.158 15.905 55.839 16.0407 55.5604 16.312C55.289 16.576 55.0764 16.95 54.9224 17.434C54.7757 17.918 54.7024 18.4827 54.7024 19.128C54.7024 19.7733 54.7757 20.338 54.9224 20.822C55.0764 21.306 55.289 21.6837 55.5604 21.955C55.839 22.219 56.158 22.351 56.5174 22.351ZM63.6609 23.176C63.0889 23.176 62.5903 23.0073 62.1649 22.67C61.7469 22.3327 61.4243 21.8633 61.1969 21.262C60.9696 20.6533 60.8559 19.942 60.8559 19.128C60.8559 18.314 60.9696 17.6063 61.1969 17.005C61.4243 16.3963 61.7469 15.9233 62.1649 15.586C62.5903 15.2487 63.0889 15.08 63.6609 15.08C64.2329 15.08 64.7279 15.2487 65.1459 15.586C65.5713 15.9233 65.8976 16.3963 66.1249 17.005C66.3523 17.6063 66.4659 18.314 66.4659 19.128C66.4659 19.942 66.3523 20.6533 66.1249 21.262C65.8976 21.8633 65.5713 22.3327 65.1459 22.67C64.7279 23.0073 64.2329 23.176 63.6609 23.176ZM63.6609 22.351C64.0203 22.351 64.3356 22.219 64.6069 21.955C64.8783 21.6837 65.0909 21.306 65.2449 20.822C65.3989 20.338 65.4759 19.7733 65.4759 19.128C65.4759 18.4827 65.3989 17.918 65.2449 17.434C65.0909 16.95 64.8783 16.576 64.6069 16.312C64.3356 16.0407 64.0203 15.905 63.6609 15.905C63.3016 15.905 62.9826 16.0407 62.7039 16.312C62.4326 16.576 62.2199 16.95 62.0659 17.434C61.9193 17.918 61.8459 18.4827 61.8459 19.128C61.8459 19.7733 61.9193 20.338 62.0659 20.822C62.2199 21.306 62.4326 21.6837 62.7039 21.955C62.9826 22.219 63.3016 22.351 63.6609 22.351ZM67.4974 25.046L68.2014 21.867H69.2134L68.2124 25.046H67.4974ZM73.4256 23.176C72.8536 23.176 72.3549 23.0073 71.9296 22.67C71.5116 22.3327 71.1889 21.8633 70.9616 21.262C70.7343 20.6533 70.6206 19.942 70.6206 19.128C70.6206 18.314 70.7343 17.6063 70.9616 17.005C71.1889 16.3963 71.5116 15.9233 71.9296 15.586C72.3549 15.2487 72.8536 15.08 73.4256 15.08C73.9976 15.08 74.4926 15.2487 74.9106 15.586C75.3359 15.9233 75.6623 16.3963 75.8896 17.005C76.1169 17.6063 76.2306 18.314 76.2306 19.128C76.2306 19.942 76.1169 20.6533 75.8896 21.262C75.6623 21.8633 75.3359 22.3327 74.9106 22.67C74.4926 23.0073 73.9976 23.176 73.4256 23.176ZM73.4256 22.351C73.7849 22.351 74.1003 22.219 74.3716 21.955C74.6429 21.6837 74.8556 21.306 75.0096 20.822C75.1636 20.338 75.2406 19.7733 75.2406 19.128C75.2406 18.4827 75.1636 17.918 75.0096 17.434C74.8556 16.95 74.6429 16.576 74.3716 16.312C74.1003 16.0407 73.7849 15.905 73.4256 15.905C73.0663 15.905 72.7473 16.0407 72.4686 16.312C72.1973 16.576 71.9846 16.95 71.8306 17.434C71.6839 17.918 71.6106 18.4827 71.6106 19.128C71.6106 19.7733 71.6839 20.338 71.8306 20.822C71.9846 21.306 72.1973 21.6837 72.4686 21.955C72.7473 22.219 73.0663 22.351 73.4256 22.351ZM80.5691 23.176C79.9971 23.176 79.4985 23.0073 79.0731 22.67C78.6551 22.3327 78.3325 21.8633 78.1051 21.262C77.8778 20.6533 77.7641 19.942 77.7641 19.128C77.7641 18.314 77.8778 17.6063 78.1051 17.005C78.3325 16.3963 78.6551 15.9233 79.0731 15.586C79.4985 15.2487 79.9971 15.08 80.5691 15.08C81.1411 15.08 81.6361 15.2487 82.0541 15.586C82.4795 15.9233 82.8058 16.3963 83.0331 17.005C83.2605 17.6063 83.3741 18.314 83.3741 19.128C83.3741 19.942 83.2605 20.6533 83.0331 21.262C82.8058 21.8633 82.4795 22.3327 82.0541 22.67C81.6361 23.0073 81.1411 23.176 80.5691 23.176ZM80.5691 22.351C80.9285 22.351 81.2438 22.219 81.5151 21.955C81.7865 21.6837 81.9991 21.306 82.1531 20.822C82.3071 20.338 82.3841 19.7733 82.3841 19.128C82.3841 18.4827 82.3071 17.918 82.1531 17.434C81.9991 16.95 81.7865 16.576 81.5151 16.312C81.2438 16.0407 80.9285 15.905 80.5691 15.905C80.2098 15.905 79.8908 16.0407 79.6121 16.312C79.3408 16.576 79.1281 16.95 78.9741 17.434C78.8275 17.918 78.7541 18.4827 78.7541 19.128C78.7541 19.7733 78.8275 20.338 78.9741 20.822C79.1281 21.306 79.3408 21.6837 79.6121 21.955C79.8908 22.219 80.2098 22.351 80.5691 22.351ZM87.7127 23.176C87.1407 23.176 86.642 23.0073 86.2167 22.67C85.7987 22.3327 85.476 21.8633 85.2487 21.262C85.0214 20.6533 84.9077 19.942 84.9077 19.128C84.9077 18.314 85.0214 17.6063 85.2487 17.005C85.476 16.3963 85.7987 15.9233 86.2167 15.586C86.642 15.2487 87.1407 15.08 87.7127 15.08C88.2847 15.08 88.7797 15.2487 89.1977 15.586C89.623 15.9233 89.9494 16.3963 90.1767 17.005C90.404 17.6063 90.5177 18.314 90.5177 19.128C90.5177 19.942 90.404 20.6533 90.1767 21.262C89.9494 21.8633 89.623 22.3327 89.1977 22.67C88.7797 23.0073 88.2847 23.176 87.7127 23.176ZM87.7127 22.351C88.072 22.351 88.3874 22.219 88.6587 21.955C88.93 21.6837 89.1427 21.306 89.2967 20.822C89.4507 20.338 89.5277 19.7733 89.5277 19.128C89.5277 18.4827 89.4507 17.918 89.2967 17.434C89.1427 16.95 88.93 16.576 88.6587 16.312C88.3874 16.0407 88.072 15.905 87.7127 15.905C87.3534 15.905 87.0344 16.0407 86.7557 16.312C86.4844 16.576 86.2717 16.95 86.1177 17.434C85.971 17.918 85.8977 18.4827 85.8977 19.128C85.8977 19.7733 85.971 20.338 86.1177 20.822C86.2717 21.306 86.4844 21.6837 86.7557 21.955C87.0344 22.219 87.3534 22.351 87.7127 22.351ZM97.2653 19.623V20.404H92.4363V19.623H97.2653ZM95.2523 22.604H94.4603V17.423H95.2523V22.604ZM104.717 23.132C104.211 23.132 103.768 23.0073 103.386 22.758C103.012 22.5087 102.719 22.1567 102.506 21.702C102.301 21.24 102.198 20.701 102.198 20.085C102.198 19.4617 102.301 18.9227 102.506 18.468C102.719 18.0133 103.012 17.665 103.386 17.423C103.768 17.1737 104.211 17.049 104.717 17.049C105.018 17.049 105.289 17.1077 105.531 17.225C105.781 17.3423 105.997 17.5 106.18 17.698C106.364 17.8887 106.496 18.1013 106.576 18.336H106.631V14.915H107.566V23H106.686V21.878H106.642C106.562 22.1053 106.426 22.318 106.235 22.516C106.045 22.7067 105.817 22.857 105.553 22.967C105.297 23.077 105.018 23.132 104.717 23.132ZM104.904 22.34C105.271 22.34 105.586 22.2483 105.85 22.065C106.122 21.8817 106.327 21.6213 106.466 21.284C106.613 20.9467 106.686 20.547 106.686 20.085C106.686 19.645 106.609 19.2563 106.455 18.919C106.301 18.5817 106.092 18.3177 105.828 18.127C105.564 17.9363 105.256 17.841 104.904 17.841C104.545 17.841 104.233 17.9327 103.969 18.116C103.713 18.292 103.515 18.5487 103.375 18.886C103.236 19.216 103.166 19.6157 103.166 20.085C103.166 20.547 103.236 20.9467 103.375 21.284C103.515 21.6213 103.713 21.8817 103.969 22.065C104.233 22.2483 104.545 22.34 104.904 22.34ZM109.414 23V17.181H110.272V18.303H110.316C110.412 17.9217 110.599 17.6173 110.877 17.39C111.156 17.1627 111.479 17.049 111.845 17.049C111.911 17.049 111.977 17.0563 112.043 17.071C112.117 17.0783 112.175 17.0893 112.219 17.104V17.951C112.168 17.9363 112.106 17.929 112.032 17.929C111.966 17.9217 111.889 17.918 111.801 17.918C111.523 17.918 111.273 17.9877 111.053 18.127C110.833 18.259 110.661 18.4423 110.536 18.677C110.412 18.9117 110.349 19.183 110.349 19.491V23H109.414ZM113.314 23V17.181H114.249V23H113.314ZM113.798 16.092C113.629 16.092 113.482 16.037 113.358 15.927C113.24 15.8097 113.182 15.6593 113.182 15.476C113.182 15.3 113.24 15.157 113.358 15.047C113.482 14.9297 113.629 14.871 113.798 14.871C113.966 14.871 114.109 14.9297 114.227 15.047C114.344 15.157 114.403 15.3 114.403 15.476C114.403 15.6593 114.344 15.8097 114.227 15.927C114.109 16.037 113.966 16.092 113.798 16.092ZM117.493 23L115.491 17.181H116.503L118.131 22.384H118.186L119.814 17.181H120.826L118.824 23H117.493ZM124.371 23.132C123.799 23.132 123.307 23.0037 122.897 22.747C122.486 22.4903 122.171 22.131 121.951 21.669C121.731 21.207 121.621 20.6717 121.621 20.063C121.621 19.4617 121.738 18.9373 121.973 18.49C122.207 18.0353 122.526 17.6833 122.93 17.434C123.34 17.1773 123.806 17.049 124.327 17.049C124.847 17.049 125.298 17.159 125.68 17.379C126.068 17.5917 126.365 17.8997 126.571 18.303C126.783 18.7063 126.89 19.183 126.89 19.733C126.89 19.843 126.89 19.9493 126.89 20.052C126.89 20.1473 126.886 20.2243 126.879 20.283H122.171V19.59H126.296L125.977 19.744C125.977 19.326 125.911 18.974 125.779 18.688C125.647 18.3947 125.452 18.1747 125.196 18.028C124.946 17.874 124.649 17.797 124.305 17.797C123.982 17.797 123.689 17.8703 123.425 18.017C123.168 18.1637 122.963 18.3947 122.809 18.71C122.655 19.018 122.578 19.425 122.578 19.931V20.096C122.578 20.8073 122.732 21.361 123.04 21.757C123.348 22.153 123.81 22.351 124.426 22.351C124.785 22.351 125.093 22.2777 125.35 22.131C125.614 21.9843 125.83 21.7607 125.999 21.46L126.747 21.845C126.607 22.1237 126.428 22.362 126.208 22.56C125.988 22.7507 125.724 22.8937 125.416 22.989C125.108 23.0843 124.759 23.132 124.371 23.132ZM128.406 23V17.181H129.264V18.303H129.308C129.404 17.9217 129.591 17.6173 129.869 17.39C130.148 17.1627 130.471 17.049 130.837 17.049C130.903 17.049 130.969 17.0563 131.035 17.071C131.109 17.0783 131.167 17.0893 131.211 17.104V17.951C131.16 17.9363 131.098 17.929 131.024 17.929C130.958 17.9217 130.881 17.918 130.793 17.918C130.515 17.918 130.265 17.9877 130.045 18.127C129.825 18.259 129.653 18.4423 129.528 18.677C129.404 18.9117 129.341 19.183 129.341 19.491V23H128.406ZM134.189 23.132C133.558 23.132 133.038 23.0037 132.627 22.747C132.216 22.4903 131.93 22.12 131.769 21.636L132.616 21.339C132.748 21.713 132.946 21.9807 133.21 22.142C133.474 22.3033 133.804 22.384 134.2 22.384C134.596 22.384 134.9 22.307 135.113 22.153C135.326 21.9917 135.432 21.7533 135.432 21.438C135.432 21.1887 135.359 20.998 135.212 20.866C135.073 20.7267 134.849 20.6167 134.541 20.536L133.529 20.272C133.045 20.1473 132.682 19.9567 132.44 19.7C132.198 19.436 132.077 19.106 132.077 18.71C132.077 18.3727 132.165 18.0793 132.341 17.83C132.524 17.5807 132.777 17.39 133.1 17.258C133.423 17.1187 133.797 17.049 134.222 17.049C134.589 17.049 134.915 17.1003 135.201 17.203C135.487 17.3057 135.729 17.4523 135.927 17.643C136.132 17.8263 136.279 18.0537 136.367 18.325L135.553 18.611C135.436 18.3323 135.263 18.127 135.036 17.995C134.809 17.863 134.534 17.797 134.211 17.797C133.822 17.797 133.522 17.874 133.309 18.028C133.104 18.1747 133.001 18.391 133.001 18.677C133.001 18.875 133.067 19.0437 133.199 19.183C133.338 19.3223 133.577 19.436 133.914 19.524L134.97 19.799C135.271 19.8723 135.524 19.9787 135.729 20.118C135.942 20.2573 136.099 20.4333 136.202 20.646C136.312 20.8513 136.367 21.1043 136.367 21.405C136.367 21.757 136.275 22.0613 136.092 22.318C135.909 22.5747 135.656 22.7763 135.333 22.923C135.01 23.0623 134.629 23.132 134.189 23.132ZM140.953 23V14.915H141.888V18.105H141.932C142.079 17.775 142.303 17.5183 142.603 17.335C142.911 17.1443 143.271 17.049 143.681 17.049C144.099 17.049 144.455 17.1297 144.748 17.291C145.049 17.445 145.28 17.6797 145.441 17.995C145.61 18.3103 145.694 18.7027 145.694 19.172V23H144.759V19.282C144.759 18.7907 144.635 18.4313 144.385 18.204C144.143 17.9693 143.828 17.852 143.439 17.852C142.97 17.852 142.592 17.9913 142.306 18.27C142.028 18.5413 141.888 18.9447 141.888 19.48V23H140.953ZM149.916 23.132C149.344 23.132 148.852 23.0037 148.442 22.747C148.031 22.4903 147.716 22.131 147.496 21.669C147.276 21.207 147.166 20.6717 147.166 20.063C147.166 19.4617 147.283 18.9373 147.518 18.49C147.752 18.0353 148.071 17.6833 148.475 17.434C148.885 17.1773 149.351 17.049 149.872 17.049C150.392 17.049 150.843 17.159 151.225 17.379C151.613 17.5917 151.91 17.8997 152.116 18.303C152.328 18.7063 152.435 19.183 152.435 19.733C152.435 19.843 152.435 19.9493 152.435 20.052C152.435 20.1473 152.431 20.2243 152.424 20.283H147.716V19.59H151.841L151.522 19.744C151.522 19.326 151.456 18.974 151.324 18.688C151.192 18.3947 150.997 18.1747 150.741 18.028C150.491 17.874 150.194 17.797 149.85 17.797C149.527 17.797 149.234 17.8703 148.97 18.017C148.713 18.1637 148.508 18.3947 148.354 18.71C148.2 19.018 148.123 19.425 148.123 19.931V20.096C148.123 20.8073 148.277 21.361 148.585 21.757C148.893 22.153 149.355 22.351 149.971 22.351C150.33 22.351 150.638 22.2777 150.895 22.131C151.159 21.9843 151.375 21.7607 151.544 21.46L152.292 21.845C152.152 22.1237 151.973 22.362 151.753 22.56C151.533 22.7507 151.269 22.8937 150.961 22.989C150.653 23.0843 150.304 23.132 149.916 23.132ZM153.951 23V14.915H154.886V23H153.951ZM156.734 25.2V17.181H157.603V18.303H157.658C157.738 18.0683 157.874 17.8557 158.065 17.665C158.255 17.4743 158.479 17.324 158.736 17.214C158.992 17.104 159.275 17.049 159.583 17.049C160.089 17.049 160.529 17.1737 160.903 17.423C161.284 17.6723 161.577 18.0243 161.783 18.479C161.995 18.9337 162.102 19.4727 162.102 20.096C162.102 20.712 161.995 21.251 161.783 21.713C161.577 22.1677 161.288 22.5197 160.914 22.769C160.54 23.011 160.096 23.132 159.583 23.132C159.289 23.132 159.014 23.0733 158.758 22.956C158.508 22.8387 158.292 22.6847 158.109 22.494C157.933 22.296 157.801 22.0797 157.713 21.845H157.669V25.2H156.734ZM159.396 22.34C159.755 22.34 160.063 22.252 160.32 22.076C160.576 21.8927 160.774 21.6323 160.914 21.295C161.053 20.9577 161.123 20.558 161.123 20.096C161.123 19.6267 161.053 19.227 160.914 18.897C160.774 18.5597 160.576 18.2993 160.32 18.116C160.063 17.9327 159.755 17.841 159.396 17.841C159.029 17.841 158.71 17.9327 158.439 18.116C158.175 18.2993 157.969 18.5597 157.823 18.897C157.676 19.227 157.603 19.6267 157.603 20.096C157.603 20.5287 157.68 20.9173 157.834 21.262C157.988 21.5993 158.197 21.8633 158.461 22.054C158.732 22.2447 159.044 22.34 159.396 22.34ZM166.147 23.132C165.575 23.132 165.084 23.0037 164.673 22.747C164.262 22.4903 163.947 22.131 163.727 21.669C163.507 21.207 163.397 20.6717 163.397 20.063C163.397 19.4617 163.514 18.9373 163.749 18.49C163.984 18.0353 164.303 17.6833 164.706 17.434C165.117 17.1773 165.582 17.049 166.103 17.049C166.624 17.049 167.075 17.159 167.456 17.379C167.845 17.5917 168.142 17.8997 168.347 18.303C168.56 18.7063 168.666 19.183 168.666 19.733C168.666 19.843 168.666 19.9493 168.666 20.052C168.666 20.1473 168.662 20.2243 168.655 20.283H163.947V19.59H168.072L167.753 19.744C167.753 19.326 167.687 18.974 167.555 18.688C167.423 18.3947 167.229 18.1747 166.972 18.028C166.723 17.874 166.426 17.797 166.081 17.797C165.758 17.797 165.465 17.8703 165.201 18.017C164.944 18.1637 164.739 18.3947 164.585 18.71C164.431 19.018 164.354 19.425 164.354 19.931V20.096C164.354 20.8073 164.508 21.361 164.816 21.757C165.124 22.153 165.586 22.351 166.202 22.351C166.561 22.351 166.869 22.2777 167.126 22.131C167.39 21.9843 167.606 21.7607 167.775 21.46L168.523 21.845C168.384 22.1237 168.204 22.362 167.984 22.56C167.764 22.7507 167.5 22.8937 167.192 22.989C166.884 23.0843 166.536 23.132 166.147 23.132ZM172.372 23.132C171.866 23.132 171.422 23.0073 171.041 22.758C170.667 22.5087 170.373 22.1567 170.161 21.702C169.955 21.24 169.853 20.701 169.853 20.085C169.853 19.4617 169.955 18.9227 170.161 18.468C170.373 18.0133 170.667 17.665 171.041 17.423C171.422 17.1737 171.866 17.049 172.372 17.049C172.672 17.049 172.944 17.1077 173.186 17.225C173.435 17.3423 173.651 17.5 173.835 17.698C174.018 17.8887 174.15 18.1013 174.231 18.336H174.286V14.915H175.221V23H174.341V21.878H174.297C174.216 22.1053 174.08 22.318 173.89 22.516C173.699 22.7067 173.472 22.857 173.208 22.967C172.951 23.077 172.672 23.132 172.372 23.132ZM172.559 22.34C172.925 22.34 173.241 22.2483 173.505 22.065C173.776 21.8817 173.981 21.6213 174.121 21.284C174.267 20.9467 174.341 20.547 174.341 20.085C174.341 19.645 174.264 19.2563 174.11 18.919C173.956 18.5817 173.747 18.3177 173.483 18.127C173.219 17.9363 172.911 17.841 172.559 17.841C172.199 17.841 171.888 17.9327 171.624 18.116C171.367 18.292 171.169 18.5487 171.03 18.886C170.89 19.216 170.821 19.6157 170.821 20.085C170.821 20.547 170.89 20.9467 171.03 21.284C171.169 21.6213 171.367 21.8817 171.624 22.065C171.888 22.2483 172.199 22.34 172.559 22.34ZM182.217 23.132C181.587 23.132 181.066 23.0037 180.655 22.747C180.245 22.4903 179.959 22.12 179.797 21.636L180.644 21.339C180.776 21.713 180.974 21.9807 181.238 22.142C181.502 22.3033 181.832 22.384 182.228 22.384C182.624 22.384 182.929 22.307 183.141 22.153C183.354 21.9917 183.46 21.7533 183.46 21.438C183.46 21.1887 183.387 20.998 183.24 20.866C183.101 20.7267 182.877 20.6167 182.569 20.536L181.557 20.272C181.073 20.1473 180.71 19.9567 180.468 19.7C180.226 19.436 180.105 19.106 180.105 18.71C180.105 18.3727 180.193 18.0793 180.369 17.83C180.553 17.5807 180.806 17.39 181.128 17.258C181.451 17.1187 181.825 17.049 182.25 17.049C182.617 17.049 182.943 17.1003 183.229 17.203C183.515 17.3057 183.757 17.4523 183.955 17.643C184.161 17.8263 184.307 18.0537 184.395 18.325L183.581 18.611C183.464 18.3323 183.292 18.127 183.064 17.995C182.837 17.863 182.562 17.797 182.239 17.797C181.851 17.797 181.55 17.874 181.337 18.028C181.132 18.1747 181.029 18.391 181.029 18.677C181.029 18.875 181.095 19.0437 181.227 19.183C181.367 19.3223 181.605 19.436 181.942 19.524L182.998 19.799C183.299 19.8723 183.552 19.9787 183.757 20.118C183.97 20.2573 184.128 20.4333 184.23 20.646C184.34 20.8513 184.395 21.1043 184.395 21.405C184.395 21.757 184.304 22.0613 184.12 22.318C183.937 22.5747 183.684 22.7763 183.361 22.923C183.039 23.0623 182.657 23.132 182.217 23.132ZM188.33 23.132C187.809 23.132 187.34 23.011 186.922 22.769C186.504 22.5197 186.174 22.1677 185.932 21.713C185.69 21.2583 185.569 20.7193 185.569 20.096C185.569 19.4727 185.69 18.9337 185.932 18.479C186.174 18.0243 186.504 17.6723 186.922 17.423C187.34 17.1737 187.809 17.049 188.33 17.049C188.858 17.049 189.331 17.1737 189.749 17.423C190.167 17.665 190.497 18.0133 190.739 18.468C190.981 18.9227 191.102 19.4653 191.102 20.096C191.102 20.7193 190.981 21.2583 190.739 21.713C190.497 22.1677 190.167 22.5197 189.749 22.769C189.338 23.011 188.865 23.132 188.33 23.132ZM188.341 22.34C188.664 22.34 188.961 22.263 189.232 22.109C189.503 21.9477 189.72 21.702 189.881 21.372C190.05 21.0347 190.134 20.6093 190.134 20.096C190.134 19.5753 190.05 19.15 189.881 18.82C189.72 18.4827 189.503 18.237 189.232 18.083C188.961 17.9217 188.664 17.841 188.341 17.841C188.011 17.841 187.71 17.9217 187.439 18.083C187.168 18.237 186.948 18.4827 186.779 18.82C186.618 19.15 186.537 19.5753 186.537 20.096C186.537 20.6093 186.618 21.0347 186.779 21.372C186.94 21.702 187.157 21.9477 187.428 22.109C187.707 22.263 188.011 22.34 188.341 22.34ZM196.419 23V16.488C196.419 15.9673 196.562 15.5567 196.848 15.256C197.141 14.9553 197.526 14.805 198.003 14.805C198.164 14.805 198.296 14.816 198.399 14.838C198.502 14.86 198.619 14.893 198.751 14.937V15.674C198.626 15.6227 198.516 15.5897 198.421 15.575C198.326 15.553 198.234 15.542 198.146 15.542C197.889 15.542 197.691 15.6227 197.552 15.784C197.42 15.9453 197.354 16.1763 197.354 16.477V23H196.419ZM195.341 17.896V17.181H198.685V17.896H195.341ZM201.448 23.132C200.869 23.132 200.403 22.9817 200.051 22.681C199.699 22.373 199.523 21.9697 199.523 21.471C199.523 20.9943 199.696 20.602 200.04 20.294C200.385 19.9787 200.884 19.777 201.536 19.689L203.692 19.403V20.085L201.778 20.338C201.338 20.3893 201.008 20.5103 200.788 20.701C200.576 20.8917 200.469 21.141 200.469 21.449C200.469 21.7423 200.572 21.9733 200.777 22.142C200.983 22.3033 201.265 22.384 201.624 22.384C201.947 22.384 202.226 22.3107 202.46 22.164C202.695 22.01 202.878 21.801 203.01 21.537C203.142 21.2657 203.208 20.9467 203.208 20.58V19.051C203.208 18.677 203.102 18.38 202.889 18.16C202.677 17.9327 202.358 17.819 201.932 17.819C201.566 17.819 201.269 17.896 201.041 18.05C200.814 18.204 200.653 18.4533 200.557 18.798L199.688 18.556C199.82 18.0793 200.088 17.709 200.491 17.445C200.895 17.181 201.382 17.049 201.954 17.049C202.688 17.049 203.234 17.2287 203.593 17.588C203.953 17.9473 204.132 18.4423 204.132 19.073V21.823L204.572 23H203.571L203.252 22.076H203.186C203.025 22.3913 202.79 22.648 202.482 22.846C202.182 23.0367 201.837 23.132 201.448 23.132ZM206.029 23V17.181H206.887V18.303H206.931C207.027 17.9217 207.214 17.6173 207.492 17.39C207.771 17.1627 208.094 17.049 208.46 17.049C208.526 17.049 208.592 17.0563 208.658 17.071C208.732 17.0783 208.79 17.0893 208.834 17.104V17.951C208.783 17.9363 208.721 17.929 208.647 17.929C208.581 17.9217 208.504 17.918 208.416 17.918C208.138 17.918 207.888 17.9877 207.668 18.127C207.448 18.259 207.276 18.4423 207.151 18.677C207.027 18.9117 206.964 19.183 206.964 19.491V23H206.029Z" fill="#161823" fill-opacity="0.8"/>
<line x1="16" y1="33.625" x2="359" y2="33.625" stroke="black" stroke-opacity="0.15" stroke-width="0.75"/>
</svg>
