<svg width="116" height="30" viewBox="0 0 116 30" fill="none" xmlns="http://www.w3.org/2000/svg">
<path d="M42.1933 21.2005L44.6387 13.6103C44.6387 13.6103 44.6272 13.5896 44.6214 13.5778C44.145 12.7883 43.455 12.1792 42.5427 11.7505C41.6332 11.3188 40.5073 11.1059 39.1705 11.1059H31.7477V27.9598H36.1592V21.6972H39.1705C40.3427 21.6972 41.3474 21.5316 42.1933 21.2034V21.2005ZM36.1592 18.0603V14.7369H39.055C39.6613 14.7369 40.1406 14.8729 40.4899 15.1419C40.8393 15.414 41.0154 15.8279 41.0154 16.3838C41.0154 16.9397 40.8393 17.3596 40.4899 17.6375C40.1406 17.9154 39.6613 18.0544 39.055 18.0544H36.1592V18.0603Z" fill="white"/>
<path d="M82.6219 27.9598V11.1059H90.0447C91.3815 11.1059 92.5074 11.3217 93.4169 11.7505C94.3263 12.1822 95.0192 12.7913 95.4956 13.5778C95.9691 14.3672 96.2087 15.3046 96.2087 16.3868C96.2087 17.469 95.972 18.4122 95.4956 19.2076C95.0221 20.0059 94.3292 20.618 93.4169 21.0467C92.5074 21.4784 91.3815 21.6913 90.0447 21.6913H85.8208V18.0574H89.9292C90.5355 18.0574 91.0148 17.9184 91.3641 17.6405C91.7135 17.3625 91.8896 16.9426 91.8896 16.3838C91.8896 15.825 91.7135 15.411 91.3641 15.1419C91.0148 14.8729 90.5355 14.7369 89.9292 14.7369H86.1702L87.0334 13.8528V27.9568H82.6219V27.9598Z" fill="white"/>
<path d="M111.799 27.9598V11.1059H116V27.9598H111.799Z" fill="white"/>
<path d="M16.5606 30L26.3364 1.91306H20.2504L12.3685 25.5233H10.6766L11.28 29.997H16.5606V30ZM14.8081 30L13.7803 28.3471L13.2173 27.3004L9.01073 16.4488C8.6354 15.1863 8.01178 14.2844 7.13697 13.7463C6.26506 13.2081 4.99472 12.9391 3.32884 12.9391H0.747742V17.2827H1.51283C1.97189 17.2827 2.34722 17.3359 2.6417 17.4423C2.93619 17.5488 3.17294 17.7232 3.34616 17.9657C3.52228 18.2081 3.6753 18.5423 3.81099 18.971L8.7249 29.997H14.811L14.8081 30Z" fill="#00F2EA"/>
<path d="M15.8128 28.0869L25.5887 0H19.5026L11.6207 23.6103H9.92886L10.5323 28.084H15.8128V28.0869ZM14.0604 28.0869L13.0325 26.4341L12.4695 25.3873L8.26298 14.5358C7.88766 13.2732 7.26403 12.3714 6.38923 11.8332C5.51732 11.2951 4.24698 11.026 2.5811 11.026H0V15.3696H0.765091C1.22415 15.3696 1.59947 15.4228 1.89396 15.5293C2.18845 15.6357 2.42519 15.8102 2.59842 16.0526C2.77454 16.2951 2.92756 16.6292 3.06325 17.058L7.97716 28.084H14.0632L14.0604 28.0869Z" fill="#FF004F"/>
<path d="M24.916 1.91306H20.2417L12.4349 25.3045L11.69 23.3856V23.3915L8.61807 15.476C8.24852 14.7161 7.75482 14.1336 7.12542 13.7492C6.2535 13.2111 4.98316 12.942 3.31729 12.942H0.739075V15.3725H0.756398C1.21545 15.3725 1.59078 15.4258 1.88527 15.5322C2.17976 15.6387 2.4165 15.8131 2.58973 16.0556C2.76584 16.298 2.91886 16.6322 3.05456 17.0609L7.96846 28.0869H15.807L24.916 1.91306Z" fill="white"/>
<path d="M64.505 27.9598V11.1059H71.9278C73.2646 11.1059 74.3906 11.3217 75.3 11.7505C76.2095 12.1822 76.9024 12.7913 77.3787 13.5778C77.8522 14.3672 78.0919 15.3046 78.0919 16.3868C78.0919 17.469 77.8551 18.4122 77.3787 19.2076C76.9053 20.0059 76.2123 20.618 75.3 21.0467C74.3906 21.4784 73.2646 21.6913 71.9278 21.6913H67.704V18.0574H71.8123C72.4186 18.0574 72.8979 17.9184 73.2473 17.6405C73.5966 17.3625 73.7727 16.9426 73.7727 16.3838C73.7727 15.825 73.5966 15.411 73.2473 15.1419C72.8979 14.8729 72.4186 14.7369 71.8123 14.7369H68.0533L68.9165 13.8528V27.9568H64.505V27.9598Z" fill="white"/>
<path d="M54.146 28.3649C52.4484 28.3649 50.9586 27.9923 49.6767 27.2472C48.3919 26.5021 47.393 25.4672 46.677 24.1396C45.961 22.8119 45.603 21.2744 45.603 19.5299C45.603 18.2022 45.808 16.9988 46.2208 15.9166C46.6337 14.8374 47.2169 13.9089 47.9704 13.1313C48.724 12.3536 49.6247 11.7564 50.667 11.3306C51.7093 10.9077 52.8699 10.6949 54.146 10.6949C55.5607 10.6949 56.7993 10.9077 57.8589 11.3306C58.9155 11.7564 59.7932 12.3802 60.4833 13.2022C61.1762 14.0272 61.6554 15.0296 61.9182 16.2153L57.5759 17.531C57.3276 16.6381 56.9061 15.9521 56.3142 15.476C55.7224 15 54.9833 14.7605 54.0969 14.7605C53.3203 14.7605 52.6505 14.9527 52.0904 15.34C51.5303 15.7244 51.0972 16.2714 50.794 16.9781C50.4909 17.6848 50.3379 18.5364 50.3379 19.5299C50.3379 20.5234 50.4909 21.3572 50.794 22.0698C51.0972 22.7824 51.5331 23.3353 52.1019 23.7197C52.6707 24.1041 53.3434 24.2963 54.12 24.2963C54.9919 24.2963 55.7224 24.0538 56.3142 23.5689C56.9061 23.084 57.3247 22.4009 57.5759 21.5257L61.872 22.8179C61.6064 24.0006 61.1358 25.0089 60.4602 25.8427C59.7846 26.6765 58.9184 27.3034 57.8704 27.7262C56.8195 28.149 55.578 28.3619 54.146 28.3619V28.3649Z" fill="white"/>
<path d="M102.777 27.9598C101.764 27.9598 100.848 27.6848 100.034 27.1348C99.22 26.5848 98.5732 25.8161 98.0969 24.8285C97.6205 23.8409 97.3809 22.6936 97.3809 21.3867C97.3809 20.0798 97.6118 18.9296 98.0738 17.9331C98.5357 16.9367 99.1738 16.162 99.9879 15.6032C100.802 15.0443 101.732 14.7664 102.777 14.7664C103.253 14.7664 103.698 14.8226 104.114 14.9349C104.529 15.0473 104.905 15.201 105.243 15.4021C105.58 15.6002 105.872 15.8456 106.117 16.1324V14.5446H110.266V27.6789H106.322V26.3867C106.091 26.7208 105.8 27.0077 105.448 27.2472C105.092 27.4867 104.691 27.667 104.238 27.7853C103.785 27.9036 103.297 27.9657 102.774 27.9657L102.777 27.9598ZM103.975 24.4204C104.466 24.4204 104.89 24.2962 105.243 24.0508C105.595 23.8054 105.866 23.4535 106.051 22.9982C106.236 22.5428 106.328 21.9988 106.328 21.3601C106.328 20.7214 106.236 20.1774 106.051 19.722C105.866 19.2667 105.598 18.9178 105.243 18.6694C104.887 18.424 104.466 18.2998 103.975 18.2998C103.484 18.2998 103.083 18.424 102.731 18.6694C102.376 18.9178 102.107 19.2667 101.922 19.722C101.738 20.1774 101.645 20.7214 101.645 21.3601C101.645 21.9988 101.738 22.5428 101.922 22.9982C102.107 23.4535 102.376 23.8025 102.731 24.0508C103.083 24.2992 103.499 24.4204 103.975 24.4204Z" fill="#00F2EA"/>
<path d="M101.818 27.9599C100.791 27.9599 99.8667 27.6849 99.041 27.135C98.2153 26.585 97.5628 25.8162 97.0806 24.8286C96.5985 23.841 96.356 22.6938 96.356 21.3869C96.356 20.08 96.5898 18.9297 97.0546 17.9333C97.5224 16.9368 98.1662 16.1622 98.9919 15.6033C99.8176 15.0445 100.759 14.7665 101.816 14.7665C102.298 14.7665 102.748 14.8227 103.17 14.9351C103.591 15.0474 103.972 15.2012 104.313 15.4023C104.656 15.6004 104.951 15.8458 105.199 16.1326V14.5448H109.4V27.679H105.407V26.3869C105.173 26.721 104.879 27.0078 104.521 27.2473C104.163 27.4868 103.756 27.6672 103.294 27.7855C102.832 27.9037 102.341 27.9658 101.813 27.9658L101.818 27.9599ZM103.031 24.4206C103.53 24.4206 103.958 24.2964 104.316 24.051C104.674 23.8056 104.945 23.4537 105.133 22.9983C105.321 22.543 105.413 21.9989 105.413 21.3603C105.413 20.7216 105.321 20.1775 105.133 19.7222C104.945 19.2668 104.674 18.9179 104.316 18.6695C103.958 18.4241 103.53 18.2999 103.031 18.2999C102.532 18.2999 102.127 18.4241 101.769 18.6695C101.411 18.9179 101.14 19.2668 100.952 19.7222C100.765 20.1775 100.672 20.7216 100.672 21.3603C100.672 21.9989 100.765 22.543 100.952 22.9983C101.14 23.4537 101.411 23.8026 101.769 24.051C102.127 24.2994 102.546 24.4206 103.031 24.4206Z" fill="#FF004F"/>
<path d="M106.12 14.5476V16.1354C105.875 15.8486 105.583 15.6061 105.245 15.4051C105.231 15.3962 105.217 15.3933 105.205 15.3844V16.1325C104.957 15.8456 104.659 15.6032 104.319 15.4021C103.975 15.204 103.594 15.0473 103.175 14.9349C102.898 14.861 102.61 14.8137 102.306 14.7901C101.452 14.864 100.681 15.1331 99.9909 15.6032C99.1767 16.162 98.5386 16.9367 98.0767 17.9332C97.6148 18.9296 97.3838 20.0798 97.3838 21.3867C97.3838 22.6937 97.6205 23.8409 98.0998 24.8285C98.5762 25.8161 99.2229 26.5849 100.037 27.1348C100.727 27.602 101.489 27.8681 102.324 27.9391C102.664 27.9125 102.993 27.8622 103.302 27.7824C103.761 27.6641 104.169 27.4837 104.527 27.2442C104.885 27.0047 105.179 26.7179 105.413 26.3838V27.2679C105.413 27.2679 105.439 27.2531 105.453 27.2442C105.806 27.0047 106.1 26.7179 106.328 26.3838V27.6759H109.406V14.5417H106.123L106.12 14.5476ZM106.051 23.01C105.866 23.4654 105.598 23.8143 105.243 24.0627C104.887 24.3111 104.466 24.4323 103.975 24.4323C103.813 24.4323 103.66 24.4116 103.513 24.385C103.36 24.4145 103.201 24.4323 103.031 24.4323C102.549 24.4323 102.127 24.3081 101.769 24.0627C101.411 23.8173 101.14 23.4654 100.952 23.01C100.765 22.5547 100.672 22.0106 100.672 21.372C100.672 20.7333 100.765 20.1892 100.952 19.7339C101.14 19.2785 101.411 18.9296 101.769 18.6812C102.127 18.4358 102.546 18.3116 103.031 18.3116C103.201 18.3116 103.36 18.3323 103.513 18.359C103.66 18.3294 103.813 18.3116 103.975 18.3116C104.466 18.3116 104.89 18.4358 105.243 18.6812C105.595 18.9296 105.866 19.2785 106.051 19.7339C106.236 20.1892 106.328 20.7333 106.328 21.372C106.328 22.0106 106.236 22.5547 106.051 23.01Z" fill="white"/>
</svg>
