<svg width="96" height="51" viewBox="0 0 96 51" fill="none" xmlns="http://www.w3.org/2000/svg">
<path d="M0 0H96V50.4242H0V0Z" fill="white"/>
<path fill-rule="evenodd" clip-rule="evenodd" d="M85.6019 36.2141H44.0262V35.8505H85.6019V36.2141Z" fill="#6A6E71"/>
<path d="M44.3901 41.5133V38.4657L46.413 39.9895L44.3901 41.5133Z" fill="#6A6E71"/>
<path d="M37.7234 13.7899V28.9051H33.7234V20.618L22.5721 31.7693V26.1131L30.8953 17.7899H22.5721V13.7899H37.7234Z" fill="#D33248"/>
<path fill-rule="evenodd" clip-rule="evenodd" d="M33.365 33.1842C32.5616 35.6061 30.695 37.6957 28.5705 39.3834C27.192 40.4785 25.8025 41.3244 24.7524 41.8974C24.4113 42.0835 24.1086 42.2394 23.857 42.3645C23.6173 42.2429 23.3314 42.0933 23.0101 41.9169C21.989 41.3563 20.6322 40.5367 19.2714 39.4967C16.4566 37.3455 14.1188 34.6309 13.9057 31.6666L13.9661 14.0396L9.9661 14.0259L9.9055 31.7228L9.90527 31.7882L9.90932 31.8535C10.2089 36.6837 13.8281 40.371 16.8426 42.6748C18.406 43.8697 19.9432 44.7963 21.085 45.4232C21.658 45.7378 22.1369 45.9799 22.4769 46.1453C22.647 46.228 22.7827 46.2917 22.8784 46.3359C22.9263 46.358 22.9642 46.3752 22.9915 46.3875L23.0243 46.4021L23.0346 46.4067L23.0382 46.4083L23.0396 46.4089C23.0396 46.4089 23.0407 46.4094 23.8449 44.5782L23.0407 46.4094L23.8285 46.7553L24.6214 46.4213L23.8449 44.5782C24.6214 46.4213 24.6227 46.4207 24.6227 46.4207L24.6242 46.4201L24.6282 46.4184L24.6393 46.4137L24.6744 46.3986C24.7034 46.386 24.7434 46.3685 24.7939 46.3459C24.8948 46.3009 25.0373 46.236 25.2154 46.1515C25.5715 45.9825 26.0718 45.7342 26.6684 45.4086C27.857 44.76 29.4523 43.7915 31.0586 42.5154C33.6763 40.4359 36.6149 37.3016 37.5107 33.1842H33.365Z" fill="#6A6E71"/>
<path d="M85.4653 25.4611H84.5852L82.5423 22.583V25.4611H81.6301V21.1761H82.568L84.5531 23.9514V21.1761H85.4653V25.4611Z" fill="#D33248"/>
<path d="M76.2621 23.3215C76.2621 22.0303 77.2065 21.1052 78.4978 21.1052C79.7955 21.1052 80.7398 22.0303 80.7398 23.3215C80.7398 24.6128 79.7955 25.5379 78.4978 25.5379C77.2065 25.5379 76.2621 24.6128 76.2621 23.3215ZM79.8019 23.3215C79.8019 22.5185 79.288 21.9146 78.4978 21.9146C77.7076 21.9146 77.2001 22.5185 77.2001 23.3215C77.2001 24.1181 77.7076 24.7284 78.4978 24.7284C79.288 24.7284 79.8019 24.1181 79.8019 23.3215Z" fill="#D33248"/>
<path d="M75.3662 25.4611H74.454V21.1761H75.3662V25.4611Z" fill="#D33248"/>
<path d="M72.3718 25.4611H71.4532V21.9791H70.2004V21.1761H73.6181V21.9791H72.3718V25.4611Z" fill="#D33248"/>
<path d="M70.232 25.4611H69.2362L68.9664 24.7223H67.052L66.7822 25.4611H65.78L67.4374 21.1761H68.5809L70.232 25.4611ZM68.7158 23.9321L68.0092 21.9663L67.2961 23.9321H68.7158Z" fill="#D33248"/>
<path d="M65.3469 25.4611H62.623V21.1761H63.5352V24.658H65.3469V25.4611Z" fill="#D33248"/>
<path d="M57.6988 23.7522V21.1761H58.6239V23.7201C58.6239 24.3175 58.9515 24.7287 59.6196 24.7287C60.2749 24.7287 60.6025 24.3175 60.6025 23.7201V21.1761H61.5276V23.7458C61.5276 24.8122 60.9173 25.5381 59.6196 25.5381C58.3091 25.5381 57.6988 24.8058 57.6988 23.7522Z" fill="#D33248"/>
<path d="M52.6184 23.3215C52.6184 21.966 53.6463 21.1052 54.899 21.1052C55.7856 21.1052 56.3445 21.5356 56.6721 22.0431L55.914 22.4543C55.7149 22.1523 55.3487 21.9146 54.899 21.9146C54.1217 21.9146 53.5563 22.5121 53.5563 23.3215C53.5563 24.131 54.1217 24.7284 54.899 24.7284C55.2909 24.7284 55.6378 24.5678 55.8241 24.4008V23.8804H54.6806V23.0967H56.7235V24.7349C56.2867 25.2231 55.6763 25.5443 54.899 25.5443C53.6463 25.5443 52.6184 24.6706 52.6184 23.3215Z" fill="#D33248"/>
<path d="M51.8605 25.4611H48.8282V21.1761H51.8605V21.9598H49.7405V22.8914H51.8155V23.6751H49.7405V24.6709H51.8605V25.4611Z" fill="#D33248"/>
<path d="M47.9192 25.4611H46.872L46.0304 23.9257H45.3623V25.4611H44.4501V21.1761H46.4544C47.3474 21.1761 47.8935 21.7607 47.8935 22.5573C47.8935 23.3154 47.4181 23.7201 46.9555 23.8293L47.9192 25.4611ZM46.962 22.5509C46.962 22.1911 46.6857 21.9598 46.3195 21.9598H45.3623V23.1419H46.3195C46.6857 23.1419 46.962 22.9106 46.962 22.5509Z" fill="#D33248"/>
<path d="M79.0955 17.7054L79.5966 17.0115C79.8985 17.3263 80.3675 17.5897 80.9586 17.5897C81.4596 17.5897 81.7038 17.352 81.7038 17.1079C81.7038 16.7867 81.3312 16.6775 80.8365 16.5618C80.1362 16.4012 79.2369 16.2085 79.2369 15.2513C79.2369 14.5382 79.8536 13.96 80.8622 13.96C81.5432 13.96 82.1085 14.1656 82.5325 14.5575L82.025 15.2256C81.6781 14.9044 81.2155 14.7566 80.7979 14.7566C80.3868 14.7566 80.1684 14.9365 80.1684 15.1935C80.1684 15.4826 80.5281 15.5725 81.0228 15.6881C81.7295 15.8487 82.6289 16.0607 82.6289 17.0115C82.6289 17.7953 82.0699 18.3863 80.9136 18.3863C80.0913 18.3863 79.5002 18.1101 79.0955 17.7054Z" fill="#D33248"/>
<path d="M78.4809 18.309H77.4338L76.5922 16.7736H75.9241V18.309H75.0118V14.024H77.0162C77.9092 14.024 78.4552 14.6086 78.4552 15.4052C78.4552 16.1633 77.9798 16.568 77.5173 16.6772L78.4809 18.309ZM77.5237 15.3988C77.5237 15.039 77.2475 14.8077 76.8813 14.8077H75.9241V15.9898H76.8813C77.2475 15.9898 77.5237 15.7585 77.5237 15.3988Z" fill="#D33248"/>
<path d="M69.6434 16.1695C69.6434 14.8782 70.5878 13.9531 71.8791 13.9531C73.1768 13.9531 74.1211 14.8782 74.1211 16.1695C74.1211 17.4608 73.1768 18.3859 71.8791 18.3859C70.5878 18.3859 69.6434 17.4608 69.6434 16.1695ZM73.1832 16.1695C73.1832 15.3665 72.6693 14.7626 71.8791 14.7626C71.0889 14.7626 70.5814 15.3665 70.5814 16.1695C70.5814 16.9661 71.0889 17.5764 71.8791 17.5764C72.6693 17.5764 73.1832 16.9661 73.1832 16.1695Z" fill="#D33248"/>
<path d="M67.9242 18.309H67.0055V14.827H65.7528V14.024H69.1705V14.827H67.9242V18.309Z" fill="#D33248"/>
<path d="M64.9155 18.309H64.0032V14.024H64.9155V18.309Z" fill="#D33248"/>
<path d="M61.3851 18.3859C60.1324 18.3859 59.1366 17.4865 59.1366 16.1695C59.1366 14.8525 60.1324 13.9531 61.3851 13.9531C62.3616 13.9531 62.9076 14.4671 63.2096 15.0003L62.4258 15.3857C62.2459 15.0388 61.8605 14.7626 61.3851 14.7626C60.6399 14.7626 60.0745 15.36 60.0745 16.1695C60.0745 16.9789 60.6399 17.5764 61.3851 17.5764C61.8605 17.5764 62.2459 17.3066 62.4258 16.9532L63.2096 17.3323C62.9012 17.8655 62.3616 18.3859 61.3851 18.3859Z" fill="#D33248"/>
<path d="M58.2412 18.309H57.3289V14.024H58.2412V18.309Z" fill="#D33248"/>
<path d="M56.4394 18.309H53.7155V14.024H54.6278V17.5059H56.4394V18.309Z" fill="#D33248"/>
<path d="M48.3471 16.1695C48.3471 14.8782 49.2915 13.9531 50.5827 13.9531C51.8804 13.9531 52.8248 14.8782 52.8248 16.1695C52.8248 17.4608 51.8804 18.3859 50.5827 18.3859C49.2915 18.3859 48.3471 17.4608 48.3471 16.1695ZM51.8869 16.1695C51.8869 15.3665 51.3729 14.7626 50.5827 14.7626C49.7926 14.7626 49.285 15.3665 49.285 16.1695C49.285 16.9661 49.7926 17.5764 50.5827 17.5764C51.3729 17.5764 51.8869 16.9661 51.8869 16.1695Z" fill="#D33248"/>
<path d="M44.1545 17.7055L44.6556 17.0117C44.9576 17.3264 45.4265 17.5898 46.0176 17.5898C46.5187 17.5898 46.7628 17.3521 46.7628 17.108C46.7628 16.7868 46.3902 16.6776 45.8955 16.562C45.1953 16.4014 44.2959 16.2086 44.2959 15.2514C44.2959 14.5383 44.9126 13.9601 45.9212 13.9601C46.6022 13.9601 47.1675 14.1657 47.5915 14.5576L47.084 15.2257C46.7371 14.9045 46.2745 14.7568 45.857 14.7568C45.4458 14.7568 45.2274 14.9366 45.2274 15.1936C45.2274 15.4827 45.5871 15.5726 46.0818 15.6883C46.7885 15.8489 47.6879 16.0609 47.6879 17.0117C47.6879 17.7954 47.129 18.3864 45.9726 18.3864C45.1503 18.3864 44.5593 18.1102 44.1545 17.7055Z" fill="#D33248"/>
<path d="M74.3184 11.1745H73.8363V10.0329L72.7689 8.42566H73.3211L74.0794 9.60433L74.8295 8.42566H75.3817L74.3184 10.0329V11.1745Z" fill="#6A6E71"/>
<path d="M71.7335 11.1745H70.3447V8.42566H71.6964C72.1992 8.42566 72.4795 8.73887 72.4795 9.12627C72.4795 9.47245 72.2569 9.70324 72.0014 9.75681C72.294 9.80214 72.533 10.0948 72.533 10.4327C72.533 10.8572 72.2487 11.1745 71.7335 11.1745ZM70.8268 8.85014V9.56311H71.5975C71.8448 9.56311 71.9849 9.41475 71.9849 9.20869C71.9849 9.00263 71.8448 8.85014 71.5975 8.85014H70.8268ZM70.8268 9.9876V10.75H71.6181C71.8819 10.75 72.0385 10.6058 72.0385 10.3668C72.0385 10.1607 71.8942 9.9876 71.6181 9.9876H70.8268Z" fill="#6A6E71"/>
<path d="M67.0531 11.1745H66.031V8.42566H67.0531C67.9103 8.42566 68.4914 8.99439 68.4914 9.80214C68.4914 10.6099 67.9103 11.1745 67.0531 11.1745ZM66.5132 8.85014V10.75H67.0531C67.6506 10.75 67.9968 10.3214 67.9968 9.80214C67.9968 9.27051 67.6671 8.85014 67.0531 8.85014H66.5132Z" fill="#6A6E71"/>
<path d="M65.371 11.1745H63.4876V8.42566H65.371V8.85014H63.9698V9.56311H65.3422V9.9876H63.9698V10.75H65.371V11.1745Z" fill="#6A6E71"/>
<path d="M62.0816 11.1745H61.5995V8.85014H60.767V8.42566H62.9141V8.85014H62.0816V11.1745Z" fill="#6A6E71"/>
<path d="M60.7485 11.1745H60.2209L60.019 10.647H58.7167L58.5148 11.1745H57.9872L59.067 8.42566H59.6687L60.7485 11.1745ZM59.883 10.2225L59.3679 8.83366L58.8527 10.2225H59.883Z" fill="#6A6E71"/>
<path d="M57.6764 11.1745H55.9826V8.42566H56.4648V10.75H57.6764V11.1745Z" fill="#6A6E71"/>
<path d="M52.8547 10.0906V8.42566H53.341V10.0741C53.341 10.511 53.5842 10.7954 54.0458 10.7954C54.5032 10.7954 54.7464 10.511 54.7464 10.0741V8.42566H55.2327V10.0865C55.2327 10.7706 54.8412 11.224 54.0458 11.224C53.2463 11.224 52.8547 10.7665 52.8547 10.0906Z" fill="#6A6E71"/>
<path d="M49.6126 9.80268C49.6126 8.94134 50.2596 8.38086 51.055 8.38086C51.5908 8.38086 51.9411 8.63637 52.1636 8.95371L51.768 9.17625C51.6238 8.97019 51.3641 8.80947 51.055 8.80947C50.511 8.80947 50.1072 9.22571 50.1072 9.80268C50.1072 10.3796 50.511 10.8 51.055 10.8C51.3353 10.8 51.5825 10.6681 51.7062 10.5527V10.1241H50.8861V9.69965H52.1884V10.73C51.9164 11.0308 51.5331 11.2286 51.055 11.2286C50.2596 11.2286 49.6126 10.664 49.6126 9.80268Z" fill="#6A6E71"/>
<path d="M49.0762 11.1745H47.1928V8.42566H49.0762V8.85014H47.675V9.56311H49.0474V9.9876H47.675V10.75H49.0762V11.1745Z" fill="#6A6E71"/>
<path d="M46.5668 11.1746H46.0104L45.4005 10.1484H44.9224V11.1746H44.4402V8.42572H45.6478C46.1918 8.42572 46.5462 8.78014 46.5462 9.28705C46.5462 9.77748 46.2247 10.0412 45.895 10.0948L46.5668 11.1746ZM46.0516 9.28705C46.0516 9.0233 45.8538 8.85021 45.5818 8.85021H44.9224V9.7239H45.5818C45.8538 9.7239 46.0516 9.55081 46.0516 9.28705Z" fill="#6A6E71"/>
<path d="M76.4141 41.4753H74.3956V38.5293H76.4141V38.9842H74.9123V39.7483H76.3831V40.2033H74.9123V41.0204H76.4141V41.4753Z" fill="#6A6E71"/>
<path d="M73.6714 41.4753H73.0751L72.4214 40.3755H71.909V41.4753H71.3923V38.5293H72.6864C73.2694 38.5293 73.6493 38.9091 73.6493 39.4524C73.6493 39.978 73.3048 40.2607 72.9514 40.3181L73.6714 41.4753ZM73.1193 39.4524C73.1193 39.1697 72.9072 38.9842 72.6157 38.9842H71.909V39.9206H72.6157C72.9072 39.9206 73.1193 39.7351 73.1193 39.4524Z" fill="#6A6E71"/>
<path d="M67.6523 40.0049C67.6523 39.1259 68.2751 38.4811 69.1585 38.4811C70.0419 38.4811 70.6646 39.1259 70.6646 40.0049C70.6646 40.8838 70.0419 41.5287 69.1585 41.5287C68.2751 41.5287 67.6523 40.8838 67.6523 40.0049ZM70.1346 40.0049C70.1346 39.3954 69.7503 38.9404 69.1585 38.9404C68.5622 38.9404 68.1824 39.3954 68.1824 40.0049C68.1824 40.61 68.5622 41.0693 69.1585 41.0693C69.7503 41.0693 70.1346 40.61 70.1346 40.0049Z" fill="#6A6E71"/>
<path d="M66.9284 41.4753H66.4117V39.2448L65.5062 41.4753H65.2854L64.3843 39.2448V41.4753H63.8676V38.5293H64.5963L65.3958 40.5125L66.1996 38.5293H66.9284V41.4753Z" fill="#6A6E71"/>
<path d="M61.6479 41.4753H61.1488L59.6117 39.3287V41.4753H59.095V38.5293H59.625L61.1311 40.6185V38.5293H61.6479V41.4753Z" fill="#6A6E71"/>
<path d="M58.3708 41.4753H57.7745L57.1208 40.3755H56.6084V41.4753H56.0917V38.5293H57.3858C57.9688 38.5293 58.3487 38.9091 58.3487 39.4524C58.3487 39.978 58.0042 40.2607 57.6508 40.3181L58.3708 41.4753ZM57.8187 39.4524C57.8187 39.1697 57.6067 38.9842 57.3151 38.9842H56.6084V39.9206H57.3151C57.6067 39.9206 57.8187 39.7351 57.8187 39.4524Z" fill="#6A6E71"/>
<path d="M55.5405 41.4753H54.9751L54.7587 40.91H53.363L53.1465 41.4753H52.5812L53.7384 38.5293H54.3832L55.5405 41.4753ZM54.6129 40.455L54.0608 38.9666L53.5087 40.455H54.6129Z" fill="#6A6E71"/>
<path d="M52.1302 41.4753H50.1117V38.5293H52.1302V38.9842H50.6285V39.7483H52.0993V40.2033H50.6285V41.0204H52.1302V41.4753Z" fill="#6A6E71"/>
<path d="M49.4157 41.4753H47.6003V38.5293H48.1171V41.0204H49.4157V41.4753Z" fill="#6A6E71"/>
<path d="M79.932 32.6127H79.0197V30.8588L77.3687 28.3277H78.4094L79.4759 30.0494L80.5294 28.3277H81.5702L79.932 30.8588V32.6127Z" fill="#D33248"/>
<path d="M75.8007 32.6127H74.882V29.1307H73.6293V28.3277H77.047V29.1307H75.8007V32.6127Z" fill="#D33248"/>
<path d="M72.8495 32.6127H71.9373V28.3277H72.8495V32.6127Z" fill="#D33248"/>
<path d="M71.0849 32.6127H70.0377L69.1961 31.0773H68.528V32.6127H67.6158V28.3277H69.6201C70.5131 28.3277 71.0592 28.9123 71.0592 29.7089C71.0592 30.467 70.5838 30.8717 70.1212 30.9809L71.0849 32.6127ZM70.1277 29.7025C70.1277 29.3427 69.8514 29.1115 69.4852 29.1115H68.528V30.2935H69.4852C69.8514 30.2935 70.1277 30.0622 70.1277 29.7025Z" fill="#D33248"/>
<path d="M62.3055 30.4731C62.3055 29.1819 63.2498 28.2568 64.5411 28.2568C65.8388 28.2568 66.7832 29.1819 66.7832 30.4731C66.7832 31.7644 65.8388 32.6895 64.5411 32.6895C63.2498 32.6895 62.3055 31.7644 62.3055 30.4731ZM65.8452 30.4731C65.8452 29.6701 65.3313 29.0662 64.5411 29.0662C63.7509 29.0662 63.2434 29.6701 63.2434 30.4731C63.2434 31.2697 63.7509 31.88 64.5411 31.88C65.3313 31.88 65.8452 31.2697 65.8452 30.4731Z" fill="#D33248"/>
<path d="M61.4736 32.6127H60.555V30.8139H58.5313V32.6127H57.6191V28.3277H58.5313V30.0108H60.555V28.3277H61.4736V32.6127Z" fill="#D33248"/>
<path d="M55.596 32.6127H54.6773V29.1307H53.4246V28.3277H56.8423V29.1307H55.596V32.6127Z" fill="#D33248"/>
<path d="M48.8209 30.9038V28.3277H49.746V30.8717C49.746 31.4692 50.0736 31.8803 50.7418 31.8803C51.397 31.8803 51.7247 31.4692 51.7247 30.8717V28.3277H52.6498V30.8974C52.6498 31.9638 52.0395 32.6898 50.7418 32.6898C49.4312 32.6898 48.8209 31.9574 48.8209 30.9038Z" fill="#D33248"/>
<path d="M48.4461 32.6127H47.4504L47.1806 31.8739H45.2661L44.9963 32.6127H43.9941L45.6516 28.3277H46.7951L48.4461 32.6127ZM46.93 31.0837L46.2234 29.1179L45.5103 31.0837H46.93Z" fill="#D33248"/>
</svg>
