<svg width="75" height="23" viewBox="0 0 75 23" fill="none" xmlns="http://www.w3.org/2000/svg">
<path d="M17.4173 10.8564C17.4173 11.1415 17.2603 17.8759 9.19118 21.6778C1.12486 17.8731 0.967773 11.1415 0.967773 10.8508V4.1615C2.67363 3.90465 6.17354 3.13129 9.19393 0.870483C12.2143 3.13129 15.7115 3.90465 17.4201 4.1615V10.8564H17.4173Z" fill="#10DF9C"/>
<path d="M10.6346 16.5168L14.5168 5.87113H12.1009L8.97112 14.8204H8.29902L8.53977 16.5168H10.6363H10.6346ZM9.93914 16.5168L9.5312 15.8908L9.30717 15.4937L7.63696 11.3802C7.48816 10.9014 7.23905 10.5598 6.89297 10.3572C6.54689 10.1529 6.04198 10.0516 5.37991 10.0516H4.35504V11.6973H4.65932C4.84156 11.6973 4.99036 11.7169 5.10739 11.7578C5.22442 11.7986 5.31805 11.864 5.38827 11.9555C5.45849 12.047 5.51867 12.1745 5.57218 12.3363L7.52327 16.5151H9.93914V16.5168Z" fill="white"/>
<path d="M23.6578 21.684C23.305 21.684 23.0007 21.628 22.7418 21.516C22.4828 21.4039 22.2789 21.2326 22.1333 21.002C21.9876 20.7714 21.9067 20.4749 21.8873 20.1093L22.9101 19.905C22.9198 20.1224 22.9586 20.3036 23.0299 20.4453C23.1011 20.5869 23.1982 20.6924 23.3179 20.7615C23.4409 20.8307 23.5801 20.867 23.7387 20.867C23.8844 20.867 24.0106 20.8439 24.111 20.7945C24.2145 20.7451 24.2954 20.6792 24.3569 20.5902C24.4184 20.5013 24.4541 20.3992 24.467 20.2839C24.4832 20.1323 24.4541 20.0038 24.3796 19.9083C24.3052 19.8095 24.166 19.7271 23.9653 19.6612L23.2629 19.4306C22.9619 19.3351 22.7288 19.1769 22.5605 18.9595C22.3922 18.7421 22.3242 18.4785 22.3534 18.1722C22.3793 17.9053 22.4667 17.6714 22.622 17.4704C22.7742 17.2695 22.9748 17.1147 23.2273 17.0026C23.4798 16.8906 23.7646 16.8346 24.0883 16.8346C24.412 16.8346 24.6806 16.884 24.9104 16.9862C25.1403 17.0883 25.3183 17.23 25.4445 17.4112C25.5708 17.5956 25.642 17.8164 25.6549 18.0733L24.6839 18.2117C24.6547 18.0074 24.5835 17.8559 24.467 17.7604C24.3537 17.6648 24.2048 17.6154 24.0203 17.6154C23.852 17.6154 23.7128 17.6582 23.6028 17.7406C23.4927 17.8229 23.428 17.9383 23.4086 18.0865C23.3956 18.2051 23.4247 18.3072 23.496 18.3896C23.5672 18.4719 23.6772 18.5444 23.8261 18.5971L24.6127 18.8541C24.9363 18.9628 25.1759 19.1275 25.3377 19.3483C25.4995 19.569 25.561 19.849 25.5222 20.1916C25.4963 20.4881 25.4057 20.7484 25.2438 20.9724C25.0852 21.1964 24.8716 21.3677 24.6062 21.4929C24.3408 21.6181 24.0236 21.6807 23.661 21.6807L23.6578 21.684Z" fill="white"/>
<path d="M27.6294 21.684C27.2765 21.684 26.9723 21.628 26.7133 21.516C26.4544 21.4039 26.2505 21.2326 26.1048 21.002C25.9592 20.7714 25.8782 20.4749 25.8588 20.1093L26.8817 19.905C26.8914 20.1224 26.9302 20.3036 27.0014 20.4453C27.0726 20.5869 27.1697 20.6924 27.2895 20.7615C27.4125 20.8307 27.5517 20.867 27.7103 20.867C27.8559 20.867 27.9822 20.8439 28.0825 20.7945C28.1861 20.7451 28.267 20.6792 28.3285 20.5902C28.39 20.5013 28.4256 20.3992 28.4386 20.2839C28.4547 20.1323 28.4256 20.0038 28.3512 19.9083C28.2767 19.8095 28.1375 19.7271 27.9369 19.6612L27.2345 19.4306C26.9334 19.3351 26.7004 19.1769 26.5321 18.9595C26.3638 18.7421 26.2958 18.4785 26.3249 18.1722C26.3508 17.9053 26.4382 17.6714 26.5936 17.4704C26.7457 17.2695 26.9464 17.1147 27.1989 17.0026C27.4513 16.8906 27.7362 16.8346 28.0599 16.8346C28.3835 16.8346 28.6522 16.884 28.882 16.9862C29.1118 17.0883 29.2898 17.23 29.4161 17.4112C29.5423 17.5956 29.6135 17.8164 29.6265 18.0733L28.6554 18.2117C28.6263 18.0074 28.5551 17.8559 28.4386 17.7604C28.3253 17.6648 28.1764 17.6154 27.9919 17.6154C27.8236 17.6154 27.6844 17.6582 27.5743 17.7406C27.4643 17.8229 27.3995 17.9383 27.3801 18.0865C27.3672 18.2051 27.3963 18.3072 27.4675 18.3896C27.5387 18.4719 27.6488 18.5444 27.7977 18.5971L28.5842 18.8541C28.9079 18.9628 29.1474 19.1275 29.3093 19.3483C29.4711 19.569 29.5326 19.849 29.4938 20.1916C29.4679 20.4881 29.3772 20.7484 29.2154 20.9724C29.0568 21.1964 28.8432 21.3677 28.5777 21.4929C28.3123 21.6181 27.9951 21.6807 27.6326 21.6807L27.6294 21.684Z" fill="white"/>
<path d="M29.8563 21.572L30.3321 16.9532H31.3355L30.892 21.2985L30.2803 20.6495H32.7985L32.7014 21.572H29.8563Z" fill="white"/>
<path d="M34.6144 21.572L35.0902 16.9532H38.0195L37.9289 17.8262H35.5466L36.0677 17.2365L35.6502 21.2985L35.252 20.7022H37.6473L37.5566 21.5753H34.6144V21.572ZM35.4916 19.5426L35.5757 18.6696H37.4239L37.3398 19.5426H35.4916Z" fill="white"/>
<path d="M38.1231 21.572L38.5989 16.9532H40.2788L41.156 20.8505L41.5541 16.9532H42.5122L42.0364 21.572H40.3565L39.489 17.6846L39.0844 21.572H38.1263H38.1231Z" fill="white"/>
<path d="M44.9042 21.684C44.4478 21.684 44.0594 21.5818 43.7357 21.3809C43.412 21.1799 43.1725 20.8966 43.0172 20.5309C42.8618 20.1653 42.81 19.7436 42.8553 19.2626C42.8942 18.8936 42.9848 18.5609 43.1272 18.2644C43.2696 17.9679 43.4509 17.7142 43.6775 17.5001C43.904 17.286 44.1598 17.1245 44.4511 17.0092C44.7424 16.8939 45.0563 16.8379 45.393 16.8379C45.7652 16.8379 46.0889 16.8939 46.3543 17.0026C46.623 17.1114 46.8366 17.2761 46.9984 17.4935C47.1603 17.7109 47.2671 17.9778 47.3189 18.294L46.309 18.5971C46.2572 18.3237 46.1471 18.1162 45.9756 17.9745C45.804 17.8295 45.5775 17.7604 45.2991 17.7604C45.0466 17.7604 44.8233 17.8197 44.6323 17.9415C44.4414 18.0634 44.286 18.2347 44.163 18.4588C44.04 18.6828 43.9623 18.9496 43.9267 19.2626C43.8976 19.569 43.9202 19.8391 43.9947 20.0631C44.0691 20.2872 44.1921 20.4618 44.3604 20.5836C44.5287 20.7055 44.7391 20.7648 44.9884 20.7648C45.2732 20.7648 45.5127 20.6924 45.7134 20.5474C45.9141 20.4025 46.0662 20.1949 46.173 19.9281L47.1117 20.2246C46.9984 20.5408 46.8398 20.8077 46.6327 21.0284C46.4255 21.2491 46.1763 21.4138 45.8882 21.5225C45.6001 21.6313 45.2732 21.6873 44.9042 21.6873V21.684Z" fill="white"/>
<path d="M47.5357 21.572L48.0115 16.9532H49.9633C50.3096 16.9532 50.601 17.0059 50.834 17.1147C51.0671 17.2234 51.2354 17.3749 51.339 17.5693C51.4425 17.7669 51.4814 18.0008 51.4522 18.2776C51.4263 18.5477 51.3389 18.7816 51.1901 18.9793C51.0412 19.1769 50.8437 19.3285 50.5912 19.4339C50.3388 19.5426 50.0442 19.5953 49.7011 19.5953H49.1994L49.2383 19.1967H48.4258L48.4711 18.7783H49.7464C49.9601 18.7783 50.1316 18.7355 50.2579 18.6531C50.3841 18.5708 50.4553 18.4456 50.4682 18.2809C50.4844 18.1096 50.4391 17.9844 50.3323 17.8987C50.2255 17.8131 50.0636 17.7702 49.85 17.7702H48.7042L48.9631 17.5396L48.5456 21.5753H47.5422L47.5357 21.572ZM50.1964 21.572L48.5424 19.0946H49.6623L51.4263 21.572H50.1964Z" fill="white"/>
<path d="M52.9121 19.569L51.7404 16.9532H52.8409L53.7439 19.2132H53.4979L54.8509 16.9532H55.945L54.2521 19.569H52.9121ZM52.8668 21.572L53.0998 19.3318H54.0967L53.8637 21.572H52.8668Z" fill="white"/>
<path d="M55.8867 21.572L56.3625 16.9532H58.3143C58.6606 16.9532 58.9519 17.0092 59.185 17.1212C59.418 17.2333 59.5831 17.3914 59.6867 17.5956C59.7902 17.7999 59.8291 18.047 59.8032 18.3303C59.7741 18.6103 59.6834 18.8541 59.5345 19.0616C59.3856 19.2692 59.185 19.4273 58.9325 19.5393C58.68 19.6513 58.3822 19.7073 58.0391 19.7073H56.8221L56.9062 18.8804H58.0844C58.2981 18.8804 58.4696 18.8343 58.5959 18.7421C58.7221 18.6498 58.7965 18.5115 58.8192 18.3303C58.8354 18.1425 58.7901 18.0041 58.68 17.9152C58.57 17.8262 58.4081 17.7801 58.1945 17.7801H57.0487L57.3141 17.5363L56.8965 21.572H55.8931H55.8867Z" fill="white"/>
<path d="M60.1172 17.879L60.2078 16.9565H63.6453L63.5547 17.879H60.1172ZM60.9458 21.572L61.4022 17.2069H62.4056L61.9492 21.572H60.9458Z" fill="white"/>
<path d="M63.6712 21.572L64.147 16.9532H65.1504L64.6746 21.572H63.6712Z" fill="white"/>
<path d="M67.6298 21.684C67.1508 21.684 66.7397 21.5818 66.4031 21.3809C66.0664 21.1799 65.8172 20.8999 65.6586 20.5342C65.5 20.1718 65.445 19.7469 65.4903 19.2626C65.5421 18.7717 65.6845 18.3468 65.9208 17.9844C66.1571 17.622 66.4646 17.3387 66.84 17.1377C67.2187 16.9368 67.646 16.8346 68.1218 16.8346C68.5976 16.8346 69.0119 16.9335 69.3486 17.1377C69.6852 17.3387 69.9344 17.6187 70.0963 17.9844C70.2581 18.3501 70.3131 18.7717 70.2613 19.2626C70.2128 19.7469 70.0736 20.1718 69.8373 20.5342C69.601 20.8966 69.2935 21.1799 68.9148 21.3809C68.5361 21.5818 68.1056 21.684 67.6298 21.684ZM67.7204 20.7615C67.9859 20.7615 68.2254 20.6989 68.4358 20.5738C68.6462 20.4486 68.8177 20.274 68.9504 20.0532C69.0831 19.8292 69.1641 19.569 69.1964 19.2659C69.232 18.9628 69.2061 18.7026 69.1187 18.4752C69.0313 18.2512 68.8954 18.0766 68.7109 17.9514C68.5232 17.8262 68.2998 17.7636 68.0377 17.7636C67.7755 17.7636 67.5327 17.8262 67.3256 17.9514C67.1184 18.0766 66.9468 18.2512 66.8141 18.4752C66.6814 18.6993 66.5973 18.9628 66.5617 19.2659C66.5325 19.569 66.5617 19.8292 66.6491 20.0532C66.7365 20.2773 66.8724 20.4486 67.0537 20.5738C67.2349 20.6989 67.4583 20.7615 67.7204 20.7615Z" fill="white"/>
<path d="M70.6109 21.572L71.0867 16.9532H72.7666L73.6438 20.8505L74.0419 16.9532H75L74.5242 21.572H72.8443L71.9768 17.6846L71.5722 21.572H70.6141H70.6109Z" fill="white"/>
<path d="M26.1242 14.8613C25.3636 14.8613 24.7033 14.7394 24.1401 14.4989C23.5769 14.2584 23.1399 13.8894 22.8259 13.3887C22.512 12.8879 22.3339 12.2455 22.2983 11.4615L24.5091 11.0233C24.5285 11.4944 24.6127 11.8865 24.7648 12.1928C24.9169 12.4992 25.1273 12.7298 25.3895 12.8781C25.6549 13.0296 25.9559 13.1054 26.3023 13.1054C26.6162 13.1054 26.8849 13.0527 27.1082 12.9505C27.3316 12.8484 27.5064 12.7002 27.6358 12.5124C27.7653 12.3246 27.843 12.1006 27.8721 11.8469C27.9077 11.5175 27.8462 11.244 27.6844 11.0332C27.5225 10.8224 27.2215 10.6445 26.7878 10.5028L25.273 10.0087C24.6224 9.8011 24.1174 9.46178 23.7549 8.99068C23.3924 8.51959 23.2435 7.95295 23.3082 7.29078C23.3632 6.71426 23.5575 6.21022 23.8844 5.77536C24.2145 5.3405 24.6483 5.00448 25.192 4.76399C25.7358 4.5235 26.3541 4.4016 27.05 4.4016C27.7459 4.4016 28.3285 4.51032 28.8237 4.72775C29.319 4.94518 29.7041 5.25156 29.9793 5.64688C30.2512 6.04221 30.4033 6.51989 30.4324 7.07665L28.3317 7.37314C28.267 6.9284 28.1116 6.60555 27.8656 6.39471C27.6196 6.18716 27.296 6.08174 26.8978 6.08174C26.5353 6.08174 26.2343 6.17069 25.9948 6.35188C25.752 6.52978 25.6161 6.78015 25.5772 7.103C25.5481 7.35667 25.6128 7.57739 25.765 7.76188C25.9171 7.94636 26.1566 8.09461 26.4803 8.20662L28.1764 8.76008C28.8723 8.99727 29.3934 9.35307 29.743 9.83075C30.0893 10.3084 30.222 10.9146 30.1379 11.6493C30.0829 12.2917 29.8822 12.8517 29.5391 13.336C29.196 13.817 28.7363 14.1925 28.1634 14.4627C27.5873 14.7328 26.9076 14.8679 26.1178 14.8679L26.1242 14.8613Z" fill="white"/>
<path d="M30.9406 14.6175L31.9699 4.63551H38.3011L38.1069 6.5199H32.9604L34.0868 5.24497L33.1837 14.0245L32.3195 12.7364H37.4951L37.3009 14.6208H30.9439L30.9406 14.6175ZM32.8309 10.2294L33.0122 8.34499H37.0064L36.8251 10.2294H32.8309Z" fill="white"/>
<path d="M42.8618 14.8613C41.8778 14.8613 41.0362 14.6439 40.3371 14.2057C39.6379 13.7708 39.12 13.1581 38.7866 12.3707C38.4532 11.5834 38.3367 10.6675 38.4403 9.6265C38.5244 8.82926 38.7186 8.11109 39.0229 7.47198C39.3304 6.83286 39.7253 6.2827 40.2141 5.82149C40.6996 5.36027 41.2563 5.00777 41.8842 4.76069C42.5089 4.51362 43.1887 4.39172 43.9234 4.39172C44.7294 4.39172 45.4221 4.51032 46.0047 4.74752C46.5841 4.98471 47.0469 5.33721 47.3965 5.80502C47.7429 6.27282 47.9727 6.84934 48.086 7.53127L45.9011 8.18356C45.7911 7.59716 45.5483 7.14913 45.1761 6.83945C44.8038 6.52978 44.3183 6.37494 43.7163 6.37494C43.1693 6.37494 42.6902 6.50672 42.2759 6.76698C41.8616 7.02723 41.525 7.40279 41.2595 7.88707C40.9941 8.37134 40.8258 8.95116 40.7514 9.6265C40.6866 10.292 40.7352 10.8685 40.897 11.3594C41.0589 11.8502 41.3243 12.2225 41.69 12.486C42.0558 12.7463 42.509 12.8781 43.0463 12.8781C43.658 12.8781 44.1791 12.7199 44.6129 12.407C45.0434 12.0907 45.3768 11.646 45.6066 11.0694L47.6393 11.7053C47.3965 12.3872 47.0534 12.967 46.6035 13.4414C46.1536 13.9158 45.6195 14.2716 44.9981 14.5088C44.3766 14.746 43.6677 14.8646 42.8682 14.8646L42.8618 14.8613Z" fill="white"/>
<path d="M52.5043 14.8613C51.6692 14.8613 50.97 14.6999 50.41 14.3803C49.8501 14.0607 49.439 13.6127 49.1801 13.0362C48.9211 12.4597 48.8337 11.7843 48.9146 11.0101L49.5555 4.6388H51.7274L51.1027 10.7697C51.0574 11.2045 51.0865 11.5801 51.1933 11.8963C51.3002 12.2126 51.4814 12.4564 51.7371 12.6244C51.9928 12.7924 52.3133 12.8781 52.7049 12.8781C53.0966 12.8781 53.4462 12.7924 53.7278 12.6244C54.0094 12.4564 54.2392 12.2126 54.4172 11.8963C54.592 11.5801 54.7053 11.2045 54.7506 10.7697L55.3753 4.6388H57.531L56.8901 11.0101C56.806 11.7843 56.5762 12.4597 56.2007 13.0362C55.8252 13.6127 55.3203 14.0607 54.6923 14.3803C54.0644 14.6999 53.3329 14.8613 52.5075 14.8613H52.5043Z" fill="white"/>
<path d="M58.0845 14.6175L59.1138 4.63551H63.3281C64.079 4.63551 64.707 4.75081 65.2054 4.98142C65.7071 5.21202 66.0697 5.54146 66.2995 5.96644C66.5261 6.39141 66.607 6.90204 66.5422 7.49503C66.4872 8.08144 66.2995 8.58548 65.979 9.01045C65.6586 9.43543 65.2281 9.76487 64.6843 9.99547C64.1405 10.2261 63.4996 10.3414 62.7584 10.3414H61.6741L61.7582 9.47826H60.0039L60.101 8.5723H62.8555C63.3184 8.5723 63.6874 8.48335 63.9625 8.30216C64.2344 8.12426 64.3865 7.85412 64.4157 7.49503C64.4513 7.12606 64.3542 6.84933 64.1244 6.66814C63.8913 6.48366 63.545 6.39141 63.0821 6.39141H60.6059L61.1627 5.89726L60.2596 14.6208H58.0877L58.0845 14.6175ZM63.8298 14.6175L60.2531 9.26412H62.6743L66.4872 14.6175H63.8298Z" fill="white"/>
<path d="M67.4324 14.6175L68.4617 4.63551H74.7929L74.5987 6.5199H69.4521L70.5785 5.24497L69.6755 14.0245L68.8112 12.7364H73.9869L73.7927 14.6208H67.4356L67.4324 14.6175ZM69.3259 10.2294L69.5072 8.34499H73.5014L73.3201 10.2294H69.3259Z" fill="white"/>
</svg>
