<svg width="69" height="24" viewBox="0 0 69 24" fill="none" xmlns="http://www.w3.org/2000/svg">
<g clip-path="url(#clip0_19_5317)">
<g clip-path="url(#clip1_19_5317)">
<g clip-path="url(#clip2_19_5317)">
<path d="M9.09843 2.96074H12.6044V3.60316H11.226V7.21522H10.4676V3.60316H9.09521V2.96049H9.09818L9.09843 2.96074ZM12.4547 4.1345H13.1028V4.72918H13.1149C13.1365 4.64507 13.176 4.56393 13.2342 4.48577C13.3585 4.31823 13.5267 4.18835 13.7203 4.11051C13.8186 4.07155 13.9232 4.05117 14.029 4.0504C14.1081 4.0504 14.1665 4.05337 14.1972 4.05658C14.2276 4.05955 14.258 4.06549 14.2917 4.06846V4.72299C14.242 4.71431 14.1921 4.7073 14.142 4.70197C14.0923 4.69608 14.0422 4.69311 13.9921 4.69306C13.8758 4.69306 13.766 4.71705 13.6621 4.76232C13.5582 4.8071 13.4694 4.87611 13.3932 4.96343C13.3119 5.06107 13.2497 5.17308 13.2097 5.29367C13.1639 5.42576 13.1424 5.57567 13.1424 5.74709V7.21226H12.4518V4.1345H12.4547ZM17.4676 7.21547H16.7891V6.78604H16.7767C16.6911 6.94238 16.566 7.06557 16.3978 7.15858C16.2296 7.25159 16.0584 7.29958 15.8842 7.29958C15.4716 7.29958 15.1718 7.20063 14.9888 6.99927C14.8052 6.79816 14.7134 6.49489 14.7134 6.08945V4.13475H15.4043V6.0234C15.4043 6.29378 15.4563 6.48598 15.5634 6.59705C15.6673 6.70812 15.8169 6.76526 16.0064 6.76526C16.1531 6.76526 16.2723 6.74424 16.3701 6.69897C16.468 6.65395 16.5474 6.59705 16.6056 6.52185C16.6667 6.44987 16.7094 6.35983 16.7372 6.25766C16.7644 6.1555 16.7767 6.04443 16.7767 5.92446V4.13772H17.4676V7.21547ZM18.6444 6.22773C18.6659 6.42563 18.7421 6.56415 18.8737 6.64504C19.008 6.72321 19.167 6.76526 19.3536 6.76526C19.4179 6.76526 19.4911 6.75908 19.5737 6.75017C19.6561 6.74102 19.7355 6.71999 19.806 6.69328C19.8792 6.66607 19.9371 6.62401 19.9861 6.57009C20.0321 6.51567 20.0534 6.4469 20.0504 6.35983C20.05 6.31941 20.0411 6.27954 20.0243 6.2428C20.0074 6.20606 19.983 6.17328 19.9527 6.14659C19.8913 6.0897 19.8152 6.04765 19.7202 6.01153C19.6143 5.97487 19.5061 5.94577 19.3961 5.92446C19.2739 5.90046 19.1517 5.87325 19.0265 5.84629C18.9004 5.81901 18.7759 5.7849 18.6535 5.74413C18.5387 5.70733 18.4304 5.65265 18.3327 5.5821C18.2374 5.51563 18.1597 5.427 18.1063 5.32385C18.0484 5.21872 18.0207 5.08959 18.0207 4.9335C18.0207 4.76529 18.0635 4.62726 18.1462 4.51298C18.2295 4.39965 18.3371 4.30635 18.4611 4.23988C18.5943 4.16945 18.7375 4.11981 18.8858 4.0927C19.0416 4.06573 19.1915 4.05065 19.332 4.05065C19.4941 4.05065 19.6499 4.0687 19.7968 4.10185C19.9391 4.13231 20.0747 4.1882 20.1971 4.26685C20.3163 4.34205 20.414 4.44099 20.4937 4.56121C20.5731 4.68119 20.6221 4.82837 20.6433 4.99955H19.922C19.8884 4.83752 19.8149 4.72645 19.6959 4.67228C19.5767 4.61539 19.4392 4.58818 19.2863 4.58818C19.2373 4.58818 19.1792 4.59114 19.1121 4.6003C19.0475 4.60889 18.984 4.62397 18.9224 4.64532C18.8661 4.66604 18.8151 4.6988 18.7727 4.7413C18.7522 4.76347 18.7362 4.78948 18.7257 4.81784C18.7153 4.84619 18.7105 4.87633 18.7116 4.90654C18.7116 4.99064 18.7421 5.05669 18.8002 5.10765C18.8583 5.15861 18.9348 5.20066 19.0295 5.23677C19.1243 5.26992 19.2314 5.29985 19.3536 5.32385C19.4758 5.34784 19.6009 5.37481 19.7296 5.40202C19.8547 5.42898 19.9769 5.4651 20.0994 5.50393C20.2216 5.54302 20.3284 5.59719 20.4234 5.66621C20.5182 5.73522 20.5946 5.81933 20.6525 5.92149C20.7106 6.0234 20.7413 6.15253 20.7413 6.30268C20.7413 6.48574 20.6985 6.6391 20.6127 6.76823C20.5273 6.89439 20.4172 6.99927 20.2827 7.07744C20.1418 7.15859 19.9892 7.21734 19.8302 7.25159C19.6686 7.28716 19.5035 7.30524 19.338 7.30551C19.1526 7.3076 18.9677 7.28539 18.7881 7.23947C18.6199 7.19444 18.4732 7.1284 18.351 7.04157C18.2302 6.95381 18.1309 6.8398 18.0606 6.70812C17.9903 6.57602 17.9535 6.41672 17.9475 6.23367H18.6444V6.22773ZM20.9246 4.135H21.4473V3.20984H22.1382V4.135H22.7616V4.6421H22.1384V6.28784C22.1384 6.35958 22.1414 6.41994 22.1476 6.47386C22.1535 6.52507 22.1689 6.57009 22.1904 6.60596C22.2138 6.64364 22.2493 6.67226 22.2911 6.68709C22.3371 6.70515 22.395 6.7143 22.4746 6.7143C22.5233 6.7143 22.5723 6.7143 22.6213 6.71109C22.6703 6.70812 22.719 6.70218 22.768 6.69006V7.21547C22.6915 7.22462 22.6151 7.23056 22.5449 7.23947C22.4708 7.24807 22.3963 7.25212 22.3217 7.25159C22.1384 7.25159 21.9917 7.23353 21.8814 7.20063C21.7716 7.16748 21.6828 7.11652 21.6217 7.05048C21.5574 6.98443 21.5178 6.90329 21.4933 6.8041C21.4695 6.69254 21.4562 6.579 21.4537 6.46496V4.64779H20.931V4.13426H20.9248L20.9246 4.135ZM23.2506 4.135H23.9049V4.55206H23.9173C24.0147 4.37198 24.1493 4.24582 24.3234 4.1679C24.5014 4.08876 24.6944 4.04877 24.8892 4.05065C25.1365 4.05065 25.3505 4.0927 25.5341 4.17977C25.7174 4.26388 25.8702 4.38113 25.9924 4.53103C26.1146 4.68119 26.2034 4.85533 26.2645 5.05372C26.3268 5.2601 26.3577 5.47464 26.3563 5.6902C26.3563 5.89725 26.3288 6.09836 26.2737 6.29081C26.223 6.47645 26.1391 6.65136 26.0261 6.80707C25.915 6.95718 25.7706 7.07952 25.6043 7.16451C25.4331 7.25456 25.2345 7.29958 25.0022 7.29958C24.9007 7.29946 24.7994 7.29036 24.6994 7.27237C24.5998 7.2544 24.5024 7.22528 24.4093 7.18554C24.3167 7.14692 24.2302 7.09528 24.1523 7.03217C24.0753 6.97082 24.0083 6.89798 23.9536 6.81622H23.9412V8.35361H23.2506V4.1345V4.135ZM25.6654 5.67808C25.6655 5.54115 25.6471 5.40484 25.6105 5.27289C25.5766 5.14787 25.5207 5.02991 25.4452 4.9246C25.3737 4.8244 25.2809 4.74128 25.1734 4.68119C25.058 4.61882 24.9286 4.58681 24.7974 4.58818C24.507 4.58818 24.2868 4.68712 24.1401 4.88551C23.9934 5.08365 23.92 5.34809 23.92 5.67808C23.92 5.83417 23.9385 5.97838 23.9781 6.11048C24.0177 6.24257 24.0728 6.35686 24.1523 6.45284C24.2289 6.54906 24.3205 6.62401 24.4276 6.67794C24.5344 6.73508 24.6599 6.76205 24.8004 6.76205C24.9594 6.76205 25.0908 6.72915 25.2008 6.66607C25.3074 6.60474 25.3992 6.52071 25.4697 6.41994C25.54 6.31777 25.5922 6.20349 25.6226 6.07461C25.6507 5.9443 25.6651 5.81139 25.6654 5.67808ZM26.8849 2.96074H27.5758V3.6034H26.8849V2.96074ZM26.8849 4.13475H27.5758V7.21547H26.8849V4.13475ZM28.1933 2.96074H28.8842V7.21547H28.1933V2.96074ZM31.0024 7.29958C30.7515 7.29958 30.5284 7.25752 30.333 7.17663C30.1456 7.09979 29.9761 6.98529 29.8348 6.84021C29.6974 6.69222 29.5922 6.51736 29.5258 6.32668C29.4531 6.1162 29.417 5.89482 29.419 5.67214C29.419 5.43788 29.4556 5.22193 29.5258 5.02354C29.5923 4.83295 29.6975 4.65819 29.8348 4.51026C29.9691 4.36604 30.1373 4.25497 30.333 4.17383C30.5284 4.0927 30.7515 4.05065 31.0024 4.05065C31.253 4.05065 31.4761 4.0927 31.6717 4.17383C31.8674 4.25497 32.0324 4.36926 32.1699 4.51026C32.3073 4.65814 32.4124 4.83292 32.4787 5.02354C32.5489 5.22169 32.5855 5.43788 32.5855 5.67214C32.5855 5.90962 32.5489 6.12854 32.4787 6.32668C32.4124 6.51739 32.3073 6.69227 32.1699 6.84021C32.0354 6.98443 31.8674 7.0955 31.6717 7.17663C31.4761 7.25752 31.253 7.29958 31.0024 7.29958ZM31.0024 6.76205C31.1552 6.76205 31.2896 6.72915 31.4026 6.66607C31.5128 6.60473 31.6079 6.51954 31.6809 6.41672C31.7541 6.3148 31.8061 6.19755 31.8429 6.06843C31.8766 5.9393 31.8949 5.80721 31.8949 5.67214C31.8949 5.54005 31.8766 5.41092 31.8429 5.27883C31.8114 5.15353 31.7564 5.03534 31.6809 4.93053C31.6077 4.82869 31.5126 4.74458 31.4026 4.6844C31.2896 4.62132 31.1552 4.58818 31.0024 4.58818C30.8495 4.58818 30.7149 4.62132 30.6019 4.6844C30.4926 4.7455 30.3977 4.82945 30.3238 4.93053C30.2494 5.03597 30.1945 5.15395 30.1618 5.27883C30.128 5.40722 30.1104 5.53937 30.1096 5.67214C30.1096 5.80721 30.1282 5.9393 30.1618 6.06843C30.1955 6.19755 30.2504 6.3148 30.3238 6.41672C30.3971 6.51888 30.4888 6.60299 30.6019 6.66607C30.7149 6.73211 30.8495 6.76205 31.0024 6.76205ZM32.7874 4.135H33.3101V3.20984H34.001V4.135H34.6243V4.6421H34.001V6.28784C34.001 6.35958 34.0039 6.41994 34.0099 6.47386C34.016 6.52507 34.0314 6.57009 34.0529 6.60596C34.0762 6.64368 34.1118 6.67231 34.1536 6.68709C34.1996 6.70515 34.2575 6.7143 34.3371 6.7143C34.3859 6.7143 34.4348 6.7143 34.4838 6.71109C34.5328 6.70812 34.5815 6.70218 34.6305 6.69006V7.21547C34.5541 7.22462 34.4776 7.23056 34.4074 7.23947C34.3333 7.24807 34.2588 7.25212 34.1843 7.25159C34.001 7.25159 33.854 7.23353 33.7439 7.20063C33.6341 7.16748 33.5453 7.11652 33.4842 7.05048C33.4201 6.98443 33.3803 6.90329 33.3558 6.8041C33.3321 6.69254 33.3188 6.57899 33.3162 6.46496V4.64779H32.7936V4.13426H32.7874V4.135Z" fill="white"/>
<path d="M8.29252 2.96075H5.12596L4.14787 0L3.16631 2.96099L0 2.95778L2.56446 4.78929L1.5834 7.74682L4.14787 5.91828L6.70936 7.74682L5.73127 4.78929L8.29252 2.96075Z" fill="#04DA8D"/>
<path d="M5.95077 5.45916L5.73062 4.78954L4.14746 5.91852L5.95077 5.45916Z" fill="#126849"/>
</g>
</g>
</g>
<path d="M10.8117 12.2335H0V23.0451H10.8117V12.2335Z" fill="#00B67A"/>
<path d="M5.40634 19.5201L7.05062 19.1034L7.73761 21.2206L5.40634 19.5201ZM9.19043 16.7833H6.29605L5.40634 14.0579L4.51663 16.7833H1.62225L3.96479 18.4727L3.07507 21.1981L5.41761 19.5088L6.85916 18.4727L9.19043 16.7833Z" fill="white"/>
<path d="M22.5395 12.2335H11.7278V23.0452H22.5395V12.2335Z" fill="#00B67A"/>
<path d="M17.1339 19.5201L18.7782 19.1034L19.4652 21.2207L17.1339 19.5201ZM20.918 16.7834H18.0236L17.1339 14.058L16.2442 16.7834H13.3498L15.6923 18.4727L14.8026 21.1982L17.1451 19.5089L18.5867 18.4727L20.918 16.7834Z" fill="white"/>
<path d="M34.2677 12.2335H23.4561V23.0452H34.2677V12.2335Z" fill="#00B67A"/>
<path d="M28.8625 19.5201L30.5067 19.1034L31.1937 21.2207L28.8625 19.5201ZM32.6465 16.7834H29.7522L28.8625 14.058L27.9727 16.7834H25.0784L27.4209 18.4727L26.5312 21.1982L28.8737 19.5089L30.3153 18.4727L32.6465 16.7834Z" fill="white"/>
<path d="M45.9955 12.2335H35.1838V23.0452H45.9955V12.2335Z" fill="#00B67A"/>
<path d="M40.5899 19.5201L42.2342 19.1034L42.9212 21.2207L40.5899 19.5201ZM44.374 16.7834H41.4796L40.5899 14.058L39.7002 16.7834H36.8058L39.1484 18.4727L38.2587 21.1982L40.6012 19.5089L42.0428 18.4727L44.374 16.7834Z" fill="white"/>
<path d="M57.7238 12.2335H46.9121V23.0452H57.7238V12.2335Z" fill="#DCDCE5"/>
<path d="M52.3407 12.2335H46.9121V23.0452H52.3407V12.2335Z" fill="#00B67A"/>
<path d="M52.3185 19.5201L53.9628 19.1034L54.6498 21.2207L52.3185 19.5201ZM56.1026 16.7834H53.2082L52.3185 14.058L51.4288 16.7834H48.5344L50.877 18.4727L49.9872 21.1982L52.3298 19.5089L53.7713 18.4727L56.1026 16.7834Z" fill="white"/>
<path d="M68.2933 16.7065L67.8579 16.7405C67.819 16.5687 67.7639 16.4438 67.6925 16.366C67.5742 16.2411 67.4282 16.1787 67.2547 16.1787C67.1152 16.1787 66.9928 16.2176 66.8874 16.2954C66.7496 16.396 66.6409 16.5427 66.5615 16.7357C66.482 16.9286 66.4407 17.2035 66.4374 17.5603C66.5428 17.3997 66.6717 17.2805 66.8242 17.2027C66.9766 17.1249 67.1363 17.0859 67.3033 17.0859C67.5952 17.0859 67.8433 17.1938 68.0477 17.4095C68.2536 17.6235 68.3566 17.9008 68.3566 18.2413C68.3566 18.4651 68.3079 18.6735 68.2106 18.8665C68.115 19.0578 67.9828 19.2046 67.8142 19.3067C67.6455 19.4089 67.4542 19.46 67.2401 19.46C66.8752 19.46 66.5777 19.3262 66.3474 19.0586C66.1171 18.7894 66.002 18.3467 66.002 17.7305C66.002 17.0413 66.1293 16.5403 66.3839 16.2273C66.6061 15.9549 66.9052 15.8187 67.2815 15.8187C67.562 15.8187 67.7914 15.8973 67.9698 16.0546C68.1498 16.2119 68.2577 16.4292 68.2933 16.7065ZM66.5055 18.2438C66.5055 18.3946 66.5371 18.5389 66.6004 18.6767C66.6652 18.8146 66.7552 18.92 66.8704 18.9929C66.9855 19.0643 67.1063 19.1 67.2328 19.1C67.4177 19.1 67.5766 19.0254 67.7096 18.8762C67.8425 18.727 67.909 18.5243 67.909 18.2681C67.909 18.0216 67.8433 17.8278 67.712 17.6867C67.5806 17.544 67.4152 17.4727 67.2158 17.4727C67.0179 17.4727 66.8501 17.544 66.7123 17.6867C66.5744 17.8278 66.5055 18.0135 66.5055 18.2438Z" fill="white"/>
<path d="M64.7216 18.7495H65.247V19.2975H64.7216V18.7495Z" fill="white"/>
<path d="M63.1177 18.1624V16.5309L61.9638 18.1624H63.1177ZM63.1252 19.4369V18.5571H61.5465V18.1146L63.1956 15.827H63.5777V18.1624H64.1081V18.5571H63.5777V19.4369H63.1252Z" fill="white"/>
<defs>
<clipPath id="clip0_19_5317">
<rect width="34.6315" height="8.41051" fill="white"/>
</clipPath>
<clipPath id="clip1_19_5317">
<rect width="34.6315" height="8.41051" fill="white"/>
</clipPath>
<clipPath id="clip2_19_5317">
<rect width="34.6315" height="8.41051" fill="white"/>
</clipPath>
</defs>
</svg>
